<ttFont>
<head>
    <!-- Most of this table will be recalculated by the compiler -->
    <tableVersion value="1.0"/>
    <fontRevision value="1.0"/>
    <checkSumAdjustment value="0x966bd4af"/>
    <magicNumber value="0x5f0f3cf5"/>
    <flags value="00000000 00000011"/>
    <unitsPerEm value="2048"/>
    <created value="Tue May 30 14:30:36 2017"/>
    <modified value="Wed May 31 02:48:26 2017"/>
    <xMin value="-500"/>
    <yMin value="-549"/>
    <xMax value="2898"/>
    <yMax value="2188"/>
<macStyle value="00000000 00000010"/>
    <lowestRecPPEM value="3"/>
    <fontDirectionHint value="2"/>
    <indexToLocFormat value="0"/>
    <glyphDataFormat value="0"/>
  </head>
          <CharString index="0">
            rmoveto
            212 54 150 146 186 hhcurveto
            177 104 -134 -164 -27 -1 -21 -3 -12 hvcurveto
            -394 -639 rmoveto
            239 169 119 163 50 hvcurveto
            -140 hlineto
            -100 -50 -103 -62 -156 hhcurveto
            -162 -143 106 227 25 2 27 3 26 hvcurveto
            811 hlineto
            9 43 6 66 45 vvcurveto
            264 -1 -181 164 -224 hhcurveto
            -323 -238 -277 -394 -280 187 -162 245 hvcurveto
            return
          </CharString>
          <CharString index="1">
            rmoveto
            263 175 -195 -293 -435 -261 -326 -348 -266 -176 195 293 430 266 331 347 hvcurveto
            -181 -1376 rmoveto
            -48 callgsubr
            355 -236 249 -336 -438 -328 -386 -513 -354 238 -250 337 hvcurveto
            return
          </CharString>
          <CharString index="2">
            105 callgsubr
            142 callsubr
            -57 45 -45 57 hvcurveto
            363 hmoveto
            -96 callgsubr
            return
          </CharString>
          <CharString index="3">
            1077 rmoveto
            -132 hlineto
            -140 -654 rlineto
            -183 -39 -140 -139 -189 hhcurveto
            -158 -85 81 148 28 6 51 8 39 hvcurveto
            133 629 -34 callsubr
            -137 -650 rlineto
            -9 -42 -5 -54 -33 vvcurveto
            -180 131 -136 201 169 122 81 110 68 vhcurveto
            86 callgsubr
            return
          </CharString>
          <CharString index="4">
            rmoveto
            119 94 87 159 23 hvcurveto
            -110 hlineto
            -95 -19 -41 -47 -61 -104 -17 187 -165 hhcurveto
            -119 -97 -90 -157 -20 hvcurveto
            110 hlineto
            94 18 42 48 61 103 17 -186 166 hhcurveto
            return
          </CharString>
          <CharString index="5">
            1262 rmoveto
            12 hlineto
            110 -702 rlineto
            -526 hlineto
            609 -560 61 callsubr
            -233 -37 callgsubr
            -129 hlineto
            -850 -1443 160 callsubr
            254 443 rlineto
            609 hlineto
            return
          </CharString>
          <CharString index="6">
            rmoveto
            58 47 46 58 58 -47 47 -58 -58 -47 -47 -58 -58 47 -46 58 hvcurveto
            return
          </CharString>
          <CharString index="7">
            -733 hlineto
            118 554 rlineto
            696 hlineto
            26 122 rlineto
            -696 hlineto
            111 519 rlineto
            733 hlineto
            26 124 rlineto
            -872 -91 callsubr
            return
          </CharString>
          <CharString index="8">
            -101 callsubr
            endchar
          </CharString>
          <CharString index="9">
            1026 -101 callgsubr
            return
          </CharString>
          <CharString index="10">
            -382 rmoveto
            137 88 53 204 118 hvcurveto
            696 1202 rlineto
            -144 hlineto
            -516 -913 rlineto
            -12 hlineto
            -142 913 79 callgsubr
            178 -1078 -45 -81 rlineto
            -140 -78 -61 -48 -80 hhcurveto
            -33 -35 6 5 -19 hvcurveto
            -23 -110 rlineto
            -5 19 45 -8 38 hhcurveto
            return
          </CharString>
          <CharString index="11">
            -20 callgsubr
            176 38 134 139 187 hhcurveto
            163 94 -98 -145 -30 -7 callsubr
            140 653 rlineto
            8 42 4 41 33 vvcurveto
            179 -131 147 -212 -171 -106 -89 -111 -72 vhcurveto
            121 callgsubr
            611 -34 callsubr
            return
          </CharString>
          <CharString index="12">
            rmoveto
            52 -1 rlineto
            87 -3 49 -32 -52 vvcurveto
            -53 -48 -34 -72 -48 -67 14 18 -36 vhcurveto
            -18 -87 rlineto
            -23 46 69 -14 56 hhcurveto
            136 97 77 109 89 -63 54 -117 12 hvcurveto
            108 169 rlineto
            0 vlineto
            -108 2 -112 -173 rlineto
            return
          </CharString>
          <CharString index="13">
            9 callgsubr
            135 139 184 hhcurveto
            160 93 -98 -142 -33 -7 callsubr
            139 653 rlineto
            9 42 4 41 36 vvcurveto
            176 -130 147 -209 -169 -112 -89 -112 -73 vhcurveto
            -12 44 callsubr
            return
          </CharString>
          <CharString index="14">
            rmoveto
            26 53 2 5 21 hvcurveto
            24 112 rlineto
            -2 -16 -42 -1 -22 hhcurveto
            -94 -54 39 84 25 3 30 8 36 hvcurveto
            105 callsubr
            252 hlineto
            24 111 rlineto
            -253 hlineto
            59 280 -34 callsubr
            -58 -280 rlineto
            -181 91 callgsubr
            181 hlineto
            -145 -677 rlineto
            -7 -35 -4 -31 -27 vvcurveto
            -133 99 -69 146 vhcurveto
            return
          </CharString>
          <CharString index="15">
            rmoveto
            -327 -241 -285 -382 -269 171 -177 257 229 184 123 185 47 hvcurveto
            -137 hlineto
            -117 -44 -119 -71 -148 hhcurveto
            -186 -116 131 213 300 181 231 238 154 118 -90 -127 14 hvcurveto
            134 hlineto
            -1 15 -2 15 -3 15 rrcurveto
            170 -33 -163 120 -207 hhcurveto
            return
          </CharString>
          <CharString index="16">
            hlineto
            149 callsubr
            return
          </CharString>
          <CharString index="17">
            -95 callsubr
            endchar
          </CharString>
          <CharString index="18" raw="1">
            06fbc71c fa5d0b  
          </CharString>
          <CharString index="19">
            rmoveto
            61 -2 rlineto
            87 -3 42 -28 -47 vvcurveto
            -47 -46 -26 -72 -39 -46 9 14 -32 vhcurveto
            -17 -80 rlineto
            -16 34 66 -12 38 hhcurveto
            135 90 62 99 91 -61 52 -119 7 hvcurveto
            95 147 -103 2 -103 -166 rlineto
            return
          </CharString>
          <CharString index="20">
            266 hmoveto
            259 1220 rlineto
            12 hlineto
            581 -1220 rlineto
            133 -13 callgsubr
            -259 -1218 rlineto
            -13 hlineto
            -579 1218 rlineto
            -134 -91 callsubr
            return
          </CharString>
          <CharString index="21">
            rmoveto
            118 95 92 119 118 -95 92 -118 -118 -95 -92 -118 -119 95 -92 118 hvcurveto
            85 vmoveto
            -71 -54 55 71 71 54 54 71 71 54 -54 -71 -71 -54 -55 -71 hvcurveto
            endchar
          </CharString>
          <CharString index="22">
            351 1403 858 rmoveto
            -435 -261 -326 -348 -266 -176 195 293 430 266 331 347 263 175 -195 -293 vhcurveto
            144 11 rmoveto
            206 -82 177 -142 95 vhcurveto
            4 7 rlineto
            -4 35 42 -3 26 hhcurveto
            135 83 62 117 25 hvcurveto
            31 147 77 callgsubr
            -26 -122 rlineto
            -75 -15 -48 -36 -113 -203 -72 33 -129 hhcurveto
            -35 callsubr
            hvcurveto
            return
          </CharString>
          <CharString index="23">
            873 173 rmoveto
            86 callgsubr
            208 977 rlineto
            63 hlineto
            114 81 59 111 24 hvcurveto
            37 172 77 callgsubr
            -32 -148 rlineto
            -62 -13 -35 -32 -91 hhcurveto
            -136 hlineto
            -140 -656 rlineto
            -182 -39 -140 -138 -189 hhcurveto
            -158 -85 81 148 28 6 51 8 39 hvcurveto
            133 629 -34 callsubr
            -137 -648 rlineto
            -9 -42 -5 -56 -33 vvcurveto
            -180 131 -136 201 169 122 81 110 68 vhcurveto
            return
          </CharString>
          <CharString index="24">
            389 297 rlineto
            -175 hlineto
            -373 -297 rlineto
            return
          </CharString>
          <CharString index="25">
            rmoveto
            -2 -14 -1 -13 -12 vvcurveto
            -149 114 -110 197 203 139 120 178 15 vhcurveto
            -120 hlineto
            -125 -15 -85 -72 -131 hhcurveto
            -123 -77 64 102 14 99 callsubr
            return
          </CharString>
          <CharString index="26">
            -449 105 hmoveto
            109 callsubr
            655 rlineto
            201 43 117 112 171 hhcurveto
            42 65 -8 -9 30 hvcurveto
            29 126 rlineto
            9 -24 -55 9 -54 hhcurveto
            -129 -101 -60 -115 -71 hvcurveto
            -12 hlineto
            33 157 65 callgsubr
            return
          </CharString>
          <CharString index="27">
            rmoveto
            151 hlineto
            315 297 rlineto
            -160 hlineto
            -214 -208 rlineto
            -12 hlineto
            -126 208 rlineto
            -143 hlineto
            return
          </CharString>
          <CharString index="28">
            733 1095 -92 callsubr
            return
          </CharString>
          <CharString index="29">
            rmoveto
            339 218 181 307 65 hvcurveto
            188 885 rlineto
            73 hlineto
            113 82 58 112 23 hvcurveto
            33 156 77 callgsubr
            -27 -132 rlineto
            -63 -14 -35 -35 -90 hhcurveto
            -153 hlineto
            -205 -956 rlineto
            -243 -51 -183 -144 -230 hhcurveto
            -239 -139 120 201 40 4 47 9 45 hvcurveto
            188 890 rlineto
            -139 hlineto
            -190 -897 rlineto
            -9 -44 -4 -43 -46 vvcurveto
            -252 179 -187 317 vhcurveto
            endchar
          </CharString>
          <CharString index="30">
            -55 207 759 159 callsubr
            135 60 116 82 149 hhcurveto
            192 117 -131 -206 -2 hvcurveto
            -9 0 -9 -1 -8 vhcurveto
            -514 hlineto
            -24 -112 rlineto
            526 hlineto
            -235 -41 -156 -167 -218 hhcurveto
            -153 -107 88 121 -16 hvcurveto
            -132 hlineto
            -180 13 144 -147 247 hhcurveto
            348 221 304 371 267 -171 172 -257 -232 -172 -134 -202 -69 hvcurveto
            return
          </CharString>
          <CharString index="31">
            rmoveto
            345 332 rlineto
            -163 hlineto
            -244 -243 rlineto
            -12 hlineto
            -141 243 rlineto
            -144 hlineto
            205 -332 rlineto
            endchar
          </CharString>
          <CharString index="32">
            rmoveto
            123 -71 73 -113 22 vhcurveto
            3 12 rlineto
            129 22 106 108 127 vvcurveto
            160 -160 113 -195 -228 -167 -112 -217 -53 vhcurveto
            134 hlineto
            143 44 121 67 134 hhcurveto
            139 93 -63 -108 -110 -111 -82 -153 hvcurveto
            -167 hlineto
            -26 -111 rlineto
            163 hlineto
            159 82 -65 -111 -130 -123 -97 -182 -169 -96 94 119 -6 162 callgsubr
            -196 5 144 -135 244 hhcurveto
            249 201 143 211 hvcurveto
            return
          </CharString>
          <CharString index="33">
            rmoveto
            339 327 rlineto
            -169 hlineto
            -320 -327 rlineto
            return
          </CharString>
          <CharString index="34">
            rmoveto
            -151 hlineto
            -315 -297 145 callgsubr
            214 208 rlineto
            12 hlineto
            126 -208 rlineto
            143 hlineto
            return
          </CharString>
          <CharString index="35" raw="1">
            f9d5f9cb f9b515fc 0c06f40a fb1f300a
            f71e06f7 25f93905 f80b06f8 7ffd5715
            f844f7ce f836f886 f7edfb87 f786fbd2
            fc53fbca fc2afc89 fc07f786 fb75f7de
            1ff8f0fa 1315fc3c fb9efbec fbe5fb8e
            fb4af74a f7c8f83d f79af7e2 f7ebf78e
            f748fb4a fbbf1e0b  
          </CharString>
          <CharString index="36">
            434 1038 -18 rmoveto
            345 213 312 357 263 -171 181 -259 -281 -197 -204 -276 -60 hvcurveto
            -243 hlineto
            98 462 rlineto
            -133 hlineto
            -229 -1077 -38 callgsubr
            return
          </CharString>
          <CharString index="37">
            1077 rmoveto
            -135 hlineto
            -434 -914 rlineto
            -12 hlineto
            -71 914 158 callgsubr
            -452 -908 rlineto
            -12 hlineto
            -58 908 rlineto
            -122 hlineto
            77 -1077 rlineto
            138 hlineto
            451 890 rlineto
            12 hlineto
            80 -890 rlineto
            139 hlineto
            return
          </CharString>
          <CharString index="38">
            rmoveto
            38 callsubr
            -45 -46 -56 104 callsubr
            364 hmoveto
            38 callsubr
            -46 -46 -56 99 callgsubr
            return
          </CharString>
          <CharString index="39">
            rmoveto
            97 hlineto
            108 73 -58 -85 -105 -84 -72 -123 -116 -79 72 96 8 hvcurveto
            0 -125 0 vlineto
            -157 -23 135 -120 197 hhcurveto
            199 142 117 162 99 -58 69 -103 21 hvcurveto
            1 8 rlineto
            126 19 88 93 116 vvcurveto
            131 -119 95 -163 -159 -125 -93 -142 -33 vhcurveto
            124 hlineto
            78 25 73 51 85 hhcurveto
            96 66 -55 -81 -92 -82 -67 -110 hvcurveto
            -121 hlineto
            return
          </CharString>
          <CharString index="40">
            rmoveto
            -648 hlineto
            -22 -106 rlineto
            647 hlineto
            endchar
          </CharString>
          <CharString index="41">
            323 rmoveto
            -203 -10 159 -150 224 hhcurveto
            236 157 141 242 51 hvcurveto
            230 1090 74 callsubr
            -224 -1055 rlineto
            -190 -40 -103 -100 -154 hhcurveto
            -151 -99 89 137 -2 hvcurveto
            2 0 2 2 vvcurveto
            -138 hlineto
            -2 0 -1 -4 vvcurveto
            return
          </CharString>
          <CharString index="42">
            rmoveto
            59 50 50 60 60 -50 49 -59 -60 -50 -49 -60 -60 50 -50 60 hvcurveto
            endchar
          </CharString>
          <CharString index="43">
            39 503 681 -61 callgsubr
            return
          </CharString>
          <CharString index="44">
            91 427 151 112 330 -539 102 callgsubr
            -378 613 583 464 rlineto
            -177 hlineto
            -616 -483 rlineto
            -12 hlineto
            194 912 rlineto
            -132 83 callsubr
            return
          </CharString>
          <CharString index="45">
            rmoveto
            -309 98 callgsubr
            115 544 rlineto
            383 hlineto
            323 240 201 321 226 -174 151 -240 hvcurveto
            -364 -122 rmoveto
            319 hlineto
            197 120 -104 -163 -242 -173 -146 -256 hvcurveto
            -349 hlineto
            return
          </CharString>
          <CharString index="46">
            -44 callgsubr
            -139 -91 callsubr
            endchar
          </CharString>
          <CharString index="47" raw="1">
            15680af7 f7fb80f7 8dfbe41f 81fb1315
            f79bf743 fb57fbb9 fc47fb99 fbdafbf0
            fb9efb44 f757f7b9 f842f79e f7dff7ef
            1f0b   
          </CharString>
          <CharString index="48">
            107 775 687 rmoveto
            -202 -129 98 183 200 177 153 240 hvcurveto
            360 hlineto
            -135 -634 rlineto
            -339 -121 rmoveto
            -1 5 5 0 5 hhcurveto
            298 hlineto
            -120 -565 rlineto
            139 -24 callgsubr
            -538 hlineto
            -327 -219 -234 -261 -179 109 -133 178 -49 hvcurveto
            -537 -587 rlineto
            179 hlineto
            return
          </CharString>
          <CharString index="49">
            hmoveto
            -55 callgsubr
            return
          </CharString>
          <CharString index="50">
            rmoveto
            8 23 37 6 37 hhcurveto
            67 36 -25 -43 -52 -44 -41 -76 113 callsubr
            116 31 79 84 94 vvcurveto
            90 -79 59 -120 -37 -41 -8 -9 -21 vhcurveto
            return
          </CharString>
          <CharString index="51">
            1051 hlineto
            26 123 rlineto
            -863 hlineto
            2 13 1108 1207 21 100 rlineto
            -1011 hlineto
            -26 -123 rlineto
            826 hlineto
            -3 -13 -1110 -1208 rlineto
            return
          </CharString>
          <CharString index="52">
            rmoveto
            2 11 1 12 12 vvcurveto
            149 -124 114 -187 -203 -138 -122 -176 -17 vhcurveto
            120 hlineto
            123 17 84 74 131 hhcurveto
            122 77 -68 -102 -13 -1 -8 -1 -6 hvcurveto
            endchar
          </CharString>
          <CharString index="53" raw="1">
            154e0a   
          </CharString>
          <CharString index="54">
            748 777 rmoveto
            198 134 -97 -192 -208 -178 -158 -239 78 callsubr
            -305 -777 rmoveto
            538 hlineto
            325 221 238 270 238 -184 153 -263 hvcurveto
            -307 hlineto
            116 544 rlineto
            -139 hlineto
            return
          </CharString>
          <CharString index="55">
            135 callsubr
            -303 136 callgsubr
            214 rlineto
            11 hlineto
            147 -214 rlineto
            153 hlineto
            -96 368 rmoveto
            112 95 85 158 28 hvcurveto
            -110 hlineto
            -94 -19 -48 -44 -54 -102 -22 183 -161 hhcurveto
            -112 -99 -86 -157 -25 hvcurveto
            110 hlineto
            93 18 49 46 54 102 22 -184 162 hhcurveto
            endchar
          </CharString>
          <CharString index="56">
            267 -43 callgsubr
            return
          </CharString>
          <CharString index="57">
            rmoveto
            151 -109 112 -144 -51 -51 -15 -28 -37 vhcurveto
            -8 3 15 21 15 17 20 19 rlinecurve
            26 29 271 255 21 14 rrcurveto
            0 -174 vlineto
            -13 -10 -214 -208 -19 -21 rrcurveto
            -129 -128 -72 -125 -130 vvcurveto
            -163 131 -121 178 193 151 143 185 vhcurveto
            -339 -218 rmoveto
            -107 -80 74 106 116 93 93 117 106 80 -76 -106 -116 -93 -91 -116 hvcurveto
            endchar
          </CharString>
          <CharString index="58">
            157 hlineto
            558 618 rlineto
            11 hlineto
            295 -618 160 callsubr
            -344 717 659 726 138 callgsubr
            -551 -609 rlineto
            -11 hlineto
            -282 609 rlineto
            -156 hlineto
            337 -699 rlineto
            return
          </CharString>
          <CharString index="59">
            779 868 rlineto
            12 hlineto
            -185 -868 rlineto
            133 4 callgsubr
            -779 -866 rlineto
            -13 hlineto
            185 866 116 callgsubr
            143 callsubr
            return
          </CharString>
          <CharString index="60">
            rmoveto
            124 2 hlineto
            95 18 77 63 94 hhcurveto
            92 66 -58 -79 -72 -37 -47 -175 -146 hvcurveto
            -361 -304 -21 -97 rlineto
            617 120 callsubr
            -430 hlineto
            2 8 249 211 rlineto
            211 174 54 70 106 vvcurveto
            132 -120 99 -160 -172 -134 -110 -156 -17 vhcurveto
            endchar
          </CharString>
          <CharString index="61">
            rmoveto
            205 146 143 201 -1 hvcurveto
            151 -109 109 -151 -77 -71 -28 -49 -48 vhcurveto
            -8 hlineto
            84 276 rlineto
            413 hlineto
            23 108 rlineto
            -519 hlineto
            -149 -489 rlineto
            13 113 0 0 hvcurveto
            53 43 69 32 69 hhcurveto
            107 71 -70 -107 -129 -92 -92 -125 -109 -75 64 93 -4 hvcurveto
            0 -125 vlineto
            -12 0 3 -6 vvcurveto
            -143 2 130 -108 175 hhcurveto
            endchar
          </CharString>
          <CharString index="62">
            187 hmoveto
            134 hlineto
            202 966 rlineto
            257 hlineto
            24 111 rlineto
            -258 hlineto
            24 120 156 callsubr
            58 104 hhcurveto
            44 35 -6 -5 19 hvcurveto
            23 110 rlineto
            6 -26 -36 7 -47 hhcurveto
            -193 -110 -90 -202 -39 hvcurveto
            -25 -124 rlineto
            -180 144 callgsubr
            180 hlineto
            return
          </CharString>
          <CharString index="63">
            rmoveto
            8 25 36 6 36 hhcurveto
            63 39 -24 -47 -51 -44 -45 -79 113 callsubr
            119 32 79 83 97 vvcurveto
            95 -80 57 -119 -38 -40 -8 -8 -20 vhcurveto
            -61 -283 -33 callsubr
            endchar
          </CharString>
          <CharString index="64">
            -26 137 callgsubr
            -735 hlineto
            106 500 rlineto
            699 hlineto
            25 122 rlineto
            -698 hlineto
            100 465 rlineto
            734 hlineto
            26 124 rlineto
            -871 hlineto
            -284 159 callgsubr
            872 hlineto
            return
          </CharString>
          <CharString index="65">
            508 -53 callsubr
            1035 -1443 73 callgsubr
            return
          </CharString>
          <CharString index="66">
            rmoveto
            213 -436 rlineto
            138 hlineto
            -267 538 493 539 138 callgsubr
            -382 -432 rlineto
            -12 hlineto
            -209 432 rlineto
            -143 hlineto
            268 -531 -495 -546 rlineto
            158 hlineto
            384 436 rlineto
            return
          </CharString>
          <CharString index="67" raw="1">
            15284add f71df79c f71af77b f72aeecc
            38fb1cfb 9efb1afb 79fb2a1f fb3cf719
            15f87af8 026cdcfc 79fc0205 f755fbd7
            15f77df7 4df795f7 e91ff75d 8afb04f7
            19fb431b fb7dfb4d fb97fbe7 fb5df705
            fb19f743 1f0e  
          </CharString>
          <CharString index="68">
            265 -176 179 -260 return
          </CharString>
          <CharString index="69">
            1233 1327 rmoveto
            -163 -766 rlineto
            -527 hlineto
            528 766 rlineto
            -120 -1327 rmoveto
            811 hlineto
            26 124 rlineto
            -675 hlineto
            117 547 rlineto
            638 hlineto
            26 122 rlineto
            -638 hlineto
            112 526 rlineto
            675 hlineto
            26 124 rlineto
            -1067 hlineto
            -985 -19 callgsubr
            145 hlineto
            303 443 rlineto
            580 hlineto
            return
          </CharString>
          <CharString index="70">
            685 rmoveto
            40 hlineto
            -146 -685 rlineto
            137 hlineto
            146 685 rlineto
            39 hlineto
            505 -685 145 callgsubr
            -539 735 816 708 rlineto
            -181 hlineto
            -738 -652 rlineto
            -40 hlineto
            139 652 128 callsubr
            -139 -652 rlineto
            -40 hlineto
            -460 652 138 callgsubr
            491 -683 -879 -760 rlineto
            188 hlineto
            return
          </CharString>
          <CharString index="71">
            rmoveto
            193 364 rlineto
            -141 hlineto
            -180 -364 rlineto
            endchar
          </CharString>
          <CharString index="72">
            -438 -328 -386 -513 -354 238 -250 337 -48 callgsubr
            return
          </CharString>
          <CharString index="73">
            rlineto
            -4 callgsubr
            return
          </CharString>
          <CharString index="74">
            rmoveto
            -155 hlineto
            -340 -306 136 callgsubr
            217 rlineto
            12 hlineto
            146 -217 rlineto
            153 hlineto
            return
          </CharString>
          <CharString index="75">
            rmoveto
            -721 126 callsubr
            -307 -1443 rlineto
            860 hlineto
            return
          </CharString>
          <CharString index="76">
            rmoveto
            147 328 rlineto
            -151 hlineto
            -111 -328 rlineto
            360 hmoveto
            68 47 54 61 50 -39 39 -52 -68 -47 -53 -60 -52 39 -39 52 hvcurveto
            -534 hmoveto
            67 47 54 61 50 -39 39 -52 -67 -47 -53 -60 -52 38 -39 53 hvcurveto
            endchar
          </CharString>
          <CharString index="77">
            rmoveto
            -201 113 -133 175 233 185 257 341 vhcurveto
            201 -1 -112 133 -175 hhcurveto
            -233 -185 -259 -339 hvcurveto
            293 -225 rmoveto
            -99 -61 85 137 264 130 228 150 99 61 -86 -136 -265 -130 -227 -150 hvcurveto
            endchar
          </CharString>
          <CharString index="78">
            -124 135 206 return
          </CharString>
          <CharString index="79">
            -16 callgsubr
            107 504 rlineto
            586 hlineto
            -108 -504 rlineto
            134 hlineto
            134 callgsubr
            -462 rlineto
            -585 96 callgsubr
            endchar
          </CharString>
          <CharString index="80" raw="1">
            1c050515 f8b106a0 ed05fcb2 06fb221c
            fa99152b 0a0e  
          </CharString>
          <CharString index="81">
            rmoveto
            -181 327 rlineto
            -162 hlineto
            200 -327 rlineto
            endchar
          </CharString>
          <CharString index="82">
            rmoveto
            8 26 35 142 callgsubr
            -44 155 callgsubr
            118 32 80 84 97 vvcurveto
            95 -80 57 -119 -38 -40 -8 -8 -20 vhcurveto
            444 -308 87 callsubr
            10 1 9 1 11 127 callgsubr
            -157 123 -102 189 200 142 118 180 15 vhcurveto
            endchar
          </CharString>
          <CharString index="83">
            313 173 222 242 191 118 -136 -218 -291 -181 -231 -228 return
          </CharString>
          <CharString index="84">
            rmoveto
            -143 300 rlineto
            -152 hlineto
            165 -300 rlineto
            -205 -5 135 callsubr
            -306 rlineto
            156 hlineto
            238 217 rlineto
            12 hlineto
            145 -217 102 callgsubr
            endchar
          </CharString>
          <CharString index="85">
            rmoveto
            170 289 74 callsubr
            -144 -289 rlineto
            endchar
          </CharString>
          <CharString index="86">
            132 hlineto
            190 890 116 callgsubr
            -21 -11 -211 -127 -38 -22 -28 -131 rcurveline
            37 22 206 123 16 8 rrcurveto
            8 hlineto
            return
          </CharString>
          <CharString index="87">
            43 callgsubr
            -134 hlineto
            return
          </CharString>
          <CharString index="88">
            hvcurveto
            363 hmoveto
            return
          </CharString>
          <CharString index="89">
            rmoveto
            -174 104 -116 157 187 153 178 216 173 -105 116 -156 -188 -152 -176 -217 vhcurveto
            268 -189 rmoveto
            -89 -57 75 113 158 97 135 115 89 56 -72 -113 -160 -96 -136 -115 hvcurveto
            -249 -882 rmoveto
            651 687 719 756 rlineto
            -146 hlineto
            -662 -697 -709 -746 rlineto
            788 269 rmoveto
            -174 104 -116 157 187 153 178 216 173 -105 116 -156 -188 -152 -176 -217 vhcurveto
            268 -189 rmoveto
            -89 -58 75 113 158 98 135 115 89 56 -72 -113 -160 -96 -136 -115 hvcurveto
            endchar
          </CharString>
          <CharString index="90">
            -646 457 1077 rmoveto
            -4 callgsubr
            -169 -788 rlineto
            -8 -36 -3 -30 -28 vvcurveto
            -129 90 -75 153 34 40 3 7 27 vhcurveto
            128 callgsubr
            -22 -29 -2 -29 hhcurveto
            -99 -49 42 82 28 4 30 7 35 hvcurveto
            return
          </CharString>
          <CharString index="91" raw="1">
            42f97175 1d1cfae4 2c0a0b 
          </CharString>
          <CharString index="92">
            -44 722 -416 rmoveto
            21 25 4 5 20 hvcurveto
            151 callsubr
            -10 -12 -1 -17 hhcurveto
            -84 -52 38 60 78 78 84 158 94 hvcurveto
            95 56 63 75 26 86 rrcurveto
            -140 hlineto
            -105 -53 -108 -57 -148 hhcurveto
            -185 -120 131 202 22 2 23 3 33 hvcurveto
            811 hlineto
            9 43 6 65 46 vvcurveto
            250 -1 -168 178 -237 hhcurveto
            -326 -235 -280 -391 -266 173 -176 259 21 26 4 5 19 hvcurveto
            -3 -15 rlineto
            -96 153 callsubr
            -398 1037 rmoveto
            218 56 153 140 181 hhcurveto
            166 115 -123 -175 -26 -1 -22 -3 -12 hvcurveto
            endchar
          </CharString>
          <CharString index="93">
            44 callgsubr
            -83 -52 38 60 77 75 85 175 119 hvcurveto
            170 117 100 215 247 vvcurveto
            68 callgsubr
            19 26 3 6 28 vhcurveto
            -3 -15 rlineto
            -97 -48 -64 -85 -80 98 callsubr
            return
          </CharString>
          <CharString index="94" raw="1">
            c71da4f7 0a050b  
          </CharString>
          <CharString index="95" raw="1">
            15eff86c e00af888 05b206f8 1cfc88f3
            1dfc57f8 d89565f9 16f8ab05 fb3f06fc
            c1fc6c05 0b  
          </CharString>
          <CharString index="96">
            151 callgsubr
            -184 297 158 callsubr
            return
          </CharString>
          <CharString index="97">
            rmoveto
            149 callsubr
            136 hlineto
            121 567 rlineto
            104 80 161 102 206 hhcurveto
            230 102 -161 -231 -49 hvcurveto
            -81 -381 rlineto
            137 hlineto
            81 380 rlineto
            302 64 -158 217 -302 hhcurveto
            -190 -136 -73 -78 -95 hvcurveto
            -12 hlineto
            148 695 rlineto
            endchar
          </CharString>
          <CharString index="98">
            685 rmoveto
            156 hlineto
            202 138 -105 -158 -199 -157 -133 -233 -202 -145 115 159 5 1 13 1 9 hvcurveto
            -132 hlineto
            -2 -11 -2 -19 -16 vvcurveto
            -211 1 206 -164 266 hhcurveto
            315 223 191 269 160 -97 110 -169 33 hvcurveto
            3 12 rlineto
            208 35 138 147 192 vvcurveto
            202 -182 152 -244 -239 -190 -143 -216 -53 vhcurveto
            135 hlineto
            141 45 137 97 153 hhcurveto
            174 122 -102 -147 -169 -152 -130 -195 hvcurveto
            -205 hlineto
            endchar
          </CharString>
          <CharString index="99">
            rmoveto
            -145 297 rlineto
            -152 hlineto
            166 -297 rlineto
            384 -16 rmoveto
            -120 hlineto
            -125 -15 -86 -21 callgsubr
            140 121 177 15 vhcurveto
            endchar
          </CharString>
          <CharString index="100">
            -5 -35 -8 -39 hvcurveto
            -134 -630 56 callsubr
            return
          </CharString>
          <CharString index="101">
            rmoveto
            -41 113 -19 116 122 vvcurveto
            257 111 259 186 189 vhcurveto
            -137 hlineto
            -181 -174 -110 -264 1 -260 rrcurveto
            -127 29 -142 43 -89 vhcurveto
            endchar
          </CharString>
          <CharString index="102">
            -98 891 hmoveto
            -1 callsubr
            return
          </CharString>
          <CharString index="103">
            -27 883 -407 rmoveto
            151 callsubr
            -9 -13 -1 -16 hhcurveto
            -83 -53 37 61 89 99 67 136 44 hvcurveto
            6 2 230 1084 116 callgsubr
            -140 -654 rlineto
            -183 -39 -140 -139 -189 hhcurveto
            -158 -85 81 148 28 6 51 8 39 hvcurveto
            133 629 -34 callsubr
            -137 -650 rlineto
            -9 -42 -5 -54 -33 vvcurveto
            -180 131 -136 201 169 122 81 110 68 vhcurveto
            12 hlineto
            -35 -158 rlineto
            -158 -50 -96 -88 50 callgsubr
            endchar
          </CharString>
          <CharString index="104">
            -6 907 681 rmoveto
            26 122 158 callsubr
            -193 -111 92 157 173 143 125 198 203 126 -107 -160 -13 hvcurveto
            -16 callgsubr
            228 26 -179 162 -287 hhcurveto
            -301 -191 -185 -235 -142 87 -114 131 -37 hvcurveto
            -12 vlineto
            -261 -30 -156 -156 -220 vvcurveto
            -236 180 -136 286 275 207 153 246 75 vhcurveto
            -139 hlineto
            -171 -62 -165 -105 -190 hhcurveto
            -206 -121 98 163 199 162 128 298 hvcurveto
            return
          </CharString>
          <CharString index="105">
            rmoveto
            55 261 rlineto
            9 42 4 37 33 vvcurveto
            182 -135 55 -130 vhcurveto
            -42 hlineto
            -22 -106 rlineto
            38 hlineto
            119 43 -60 -92 -31 -5 -33 -7 -35 hvcurveto
            -58 -276 rlineto
            -7 -35 -5 -31 -27 vvcurveto
            -100 54 -47 125 -23 vhcurveto
            -3 -16 -149 -14 -90 -60 -34 -162 rlinecurve
            -69 -323 rlineto
            -170 -36 -64 -60 -146 hhcurveto
            -44 hlineto
            -24 -109 rlineto
            51 hlineto
            214 119 78 233 50 hvcurveto
            65 305 rlineto
            161 35 71 49 158 hhcurveto
            34 157 rlineto
            -122 3 -63 22 103 vvcurveto
            24 4 30 7 35 vhcurveto
            endchar
          </CharString>
          <CharString index="106">
            134 callgsubr
            -453 rlineto
            -76 -67 -101 -37 -124 hhcurveto
            -183 -65 108 174 37 hvcurveto
            61 284 -18 callgsubr
            -59 -279 rlineto
            -243 -52 117 -162 255 hhcurveto
            109 102 32 50 59 hvcurveto
            14 hlineto
            -100 -475 rlineto
            return
          </CharString>
          <CharString index="107">
            538 rmoveto
            237 -182 172 -250 -177 -155 -90 -144 -90 vhcurveto
            -12 1 rlineto
            406 80 190 230 244 hhcurveto
            178 120 -104 -156 10 hvcurveto
            142 hlineto
            223 -9 -182 160 -246 hhcurveto
            -474 -211 -581 -411 -322 194 -189 272 315 243 247 321 hvcurveto
            -463 291 rmoveto
            188 133 -128 -180 -240 -179 -188 -228 -197 -135 132 190 232 190 182 228 hvcurveto
            endchar
          </CharString>
          <CharString index="108">
            -40 callgsubr
            -3 -240 rmoveto
            6 callsubr
            -107 hhcurveto
            -17 -19 2 3 -14 119 callsubr
            -3 16 38 -2 19 hhcurveto
            177 101 81 193 42 hvcurveto
            return
          </CharString>
          <CharString index="109">
            -164 688 976 rmoveto
            125 73 -55 -94 -102 -70 -65 -177 -37 hvcurveto
            -164 -38 rlineto
            -232 -55 -116 -95 -170 vvcurveto
            -172 145 -111 220 210 178 111 189 77 vhcurveto
            -141 hlineto
            -116 -58 -121 -65 -143 hhcurveto
            -150 -85 70 103 106 80 54 161 37 hvcurveto
            170 42 rlineto
            232 55 118 93 166 vvcurveto
            167 -123 101 -204 -223 -155 -120 -182 -81 vhcurveto
            136 hlineto
            112 62 108 71 148 hhcurveto
            endchar
          </CharString>
          <CharString index="110">
            -189 144 -149 185 88 88 35 69 62 vhcurveto
            17 hlineto
            -42 -144 -151 -141 -207 -34 rrcurveto
            0 vlineto
            -101 vlineto
            0 vlineto
            300 42 242 220 314 vvcurveto
            252 -160 166 -215 -199 -152 -147 -193 vhcurveto
            return
          </CharString>
          <CharString index="111">
            -106 540 -18 rmoveto
            276 195 129 202 59 hvcurveto
            -137 hlineto
            -132 -51 -148 -80 -184 hhcurveto
            -173 -104 71 113 125 103 79 188 hvcurveto
            176 hlineto
            101 callsubr
            -156 hlineto
            -155 -79 60 102 119 105 89 190 186 94 -65 -128 30 hvcurveto
            134 hlineto
            181 -22 -137 130 -283 hhcurveto
            -256 -177 -124 -206 -96 59 -74 95 -32 hvcurveto
            -3 -12 rlineto
            -155 -32 -103 -99 -150 vvcurveto
            -187 182 -101 225 vhcurveto
            return
          </CharString>
          <CharString index="112">
            151 callsubr
            -10 -12 -1 -17 hhcurveto
            -83 -53 38 61 77 86 89 157 79 hvcurveto
            158 80 113 145 43 200 209 981 rcurveline
            -139 hlineto
            -205 -956 rlineto
            -240 -51 -181 -147 -232 hhcurveto
            -248 -130 124 205 39 5 44 8 41 hvcurveto
            188 890 rlineto
            -139 hlineto
            -190 -897 rlineto
            -9 -46 -4 -41 -44 vvcurveto
            -254 179 -187 317 30 52 9 7 19 vhcurveto
            -3 -16 rlineto
            -99 -46 -69 -81 -84 vvcurveto
            -104 92 -75 130 return
          </CharString>
          <CharString index="113">
            -131 hlineto
            -245 -1153 rlineto
            -125 -27 -54 -49 return
          </CharString>
          <CharString index="114">
            -30 rmoveto
            330 216 237 319 236 -190 173 -241 -117 -115 -42 -80 -80 hvcurveto
            -12 1 154 506 rlineto
            667 hlineto
            27 123 rlineto
            -782 hlineto
            -242 -778 rlineto
            14 123 0 0 hvcurveto
            90 72 125 64 134 hhcurveto
            188 135 -124 -187 -240 -165 -177 -236 -197 -136 119 158 0 0 6 1 1 hvcurveto
            -136 hlineto
            -1 -5 0 -13 -6 vvcurveto
            -212 201 -169 263 vhcurveto
            endchar
          </CharString>
          <CharString index="115">
            rmoveto
            57 44 -45 -58 -57 -44 -45 -57 -58 -44 45 57 58 44 45 58 hvcurveto
            -269 vmoveto
            93 75 72 94 94 -75 73 -93 -94 -75 -73 -94 -94 75 -72 94 hvcurveto
            endchar
          </CharString>
          <CharString index="116">
            247 1379 411 rmoveto
            -140 hlineto
            -183 -71 -170 -131 -227 hhcurveto
            -296 -160 228 352 45 hvcurveto
            689 hlineto
            26 124 rlineto
            -692 hlineto
            324 76 227 221 283 hhcurveto
            219 167 -139 -205 6 hvcurveto
            139 hlineto
            4 0 13 -1 6 vhcurveto
            264 -11 -233 184 -270 hhcurveto
            -406 -288 -317 -431 -58 hvcurveto
            -476 -79 229 -279 375 hhcurveto
            299 233 167 274 89 hvcurveto
            return
          </CharString>
          <CharString index="117">
            151 callgsubr
            341 330 rlineto
            -161 hlineto
            -672 -330 151 callgsubr
            341 330 rlineto
            -162 hlineto
            endchar
          </CharString>
          <CharString index="118">
            504 rmoveto
            241 -179 179 -237 -92 -92 -33 -47 -56 vhcurveto
            -12 6 25 32 22 25 32 30 rlinecurve
            522 506 rlineto
            -172 hlineto
            -428 -425 rlineto
            -224 -223 -101 -188 -190 vvcurveto
            -252 189 -184 269 303 231 231 292 vhcurveto
            -473 314 rmoveto
            197 143 -136 -189 -218 -169 -173 -222 -201 -139 140 189 216 172 171 219 hvcurveto
            endchar
          </CharString>
          <CharString index="119">
            rmoveto
            140 hlineto
            307 217 rlineto
            -175 hlineto
            -392 -488 rmoveto
            -96 callgsubr
            364 hmoveto
            56 46 45 57 57 -46 45 -56 -57 113 callgsubr
            57 hvcurveto
            return
          </CharString>
          <CharString index="120">
            133 34 callgsubr
            return
          </CharString>
          <CharString index="121">
            -94 callgsubr
            endchar
          </CharString>
          <CharString index="122">
            hmoveto
            -89 callgsubr
            endchar
          </CharString>
          <CharString index="123">
            rmoveto
            359 294 424 558 311 -168 210 -256 -358 -297 -430 -555 -310 168 -208 258 hvcurveto
            return
          </CharString>
          <CharString index="124">
            rmoveto
            22 101 rlineto
            -644 hlineto
            -22 -101 rlineto
            return
          </CharString>
          <CharString index="125">
            42 861 111 rmoveto
            -603 hlineto
            3 12 71 68 51 121 45 151 rlinecurve
            19 60 110 387 15 56 rrcurveto
            471 hlineto
            -992 -1251 rmoveto
            61 285 rlineto
            909 120 callgsubr
            124 hlineto
            85 152 callsubr
            -723 hlineto
            -15 -59 -138 -488 -19 -62 -49 -168 -76 -139 -81 -50 rrcurveto
            -88 hlineto
            -85 -396 rlineto
            endchar
          </CharString>
          <CharString index="126">
            rmoveto
            102 98 72 133 23 hvcurveto
            -110 hlineto
            -65 -19 -34 -35 -58 -78 -48 121 -121 hhcurveto
            -100 -100 -72 -126 -23 hvcurveto
            110 hlineto
            57 18 35 37 58 78 47 -122 122 hhcurveto
            -178 -268 rmoveto
            179 135 94 126 24 hvcurveto
            -119 hlineto
            -73 -18 -79 -49 -118 hhcurveto
            -116 -72 59 63 -6 hvcurveto
            0 -117 0 vlineto
            -104 2 119 -116 186 hhcurveto
            endchar
          </CharString>
          <CharString index="127" raw="1">
            fbb115f7 1406d2f7 c8cc1dfb 4bfab215
            f747fecb 05f71006 f915facb 05fb2606
            fc94fe13 057e06fb 20fa1305 0b
          </CharString>
          <CharString index="128">
            -363 -101 callsubr
            return
          </CharString>
          <CharString index="129" raw="1">
            f756fac6 1c049a15 a3f70905 fdff0673
            fb0905d4 1cfb6615 f8ae06f7 d9f771f7
            82f7a2f7 82fb4bf7 2dfb9b1f fbc806f7
            15f8f205 fb1f06fb 2f1cfa99 15f720f9
            2305f7c6 06f75af7 192afb54 fb64fb45
            fb32fb84 1f0e  
          </CharString>
          <CharString index="130">
            140 892 -102 callsubr
            -106 1358 rmoveto
            -87 callgsubr
            -237 224 rlineto
            return
          </CharString>
          <CharString index="131">
            -93 callsubr
            endchar
          </CharString>
          <CharString index="132">
            143 callsubr
            133 hlineto
            return
          </CharString>
          <CharString index="133">
            rmoveto
            -4 0 -7 -3 vvcurveto
            -154 125 -106 185 178 138 107 167 26 vhcurveto
            -119 hlineto
            -106 -20 -84 -67 -115 hhcurveto
            -121 -72 70 103 -4 hvcurveto
            0 vlineto
            endchar
          </CharString>
          <CharString index="134" raw="1">
            f791e7f9 3d15f8cf ef1dfcd0 06f7d1f9
            12be0a   
          </CharString>
          <CharString index="135">
            604 146 callsubr
            172 222 242 190 117 -136 -218 -291 -180 -231 -227 hvcurveto
            111 994 rmoveto
            -326 -237 -280 -387 -266 176 -180 260 323 239 284 385 265 -175 31 callgsubr
            return
          </CharString>
          <CharString index="136">
            hmoveto
            134 hlineto
            69 326 rlineto
            216 hlineto
            26 123 rlineto
            -216 hlineto
            212 996 rlineto
            -206 hlineto
            -459 -496 -236 -276 -174 -218 -21 -129 rcurveline
            724 hlineto
            -552 131 rmoveto
            209 258 190 222 354 375 rrcurveto
            9 hlineto
            -183 -864 rlineto
            -581 hlineto
            endchar
          </CharString>
          <CharString index="137">
            rmoveto
            -183 -115 127 202 287 182 260 return
          </CharString>
          <CharString index="138">
            1228 rmoveto
            123 callgsubr
            -55 -44 -44 -12 callgsubr
            44 -55 -56 -44 -44 -56 -55 44 -44 56 hvcurveto
            -239 320 rmoveto
            154 hlineto
            329 306 rlineto
            -164 hlineto
            -228 -217 rlineto
            -12 hlineto
            -136 217 rlineto
            -142 hlineto
            endchar
          </CharString>
          <CharString index="139">
            41 callgsubr
            endchar
          </CharString>
          <CharString index="140">
            59 46 47 58 59 -46 47 -59 -59 -47 -47 -59 -58 47 -47 59 hvcurveto
            return
          </CharString>
          <CharString index="141">
            157 1128 hmoveto
            -42 callgsubr
            return
          </CharString>
          <CharString index="142">
            140 693 hmoveto
            846 -37 callgsubr
            -151 hlineto
            -720 -1259 rlineto
            -12 hlineto
            -202 1259 rlineto
            -130 hlineto
            234 -19 callgsubr
            return
          </CharString>
          <CharString index="143">
            rmoveto
            151 hlineto
            331 224 108 callsubr
            -213 -146 rlineto
            -11 hlineto
            -151 146 rlineto
            -163 hlineto
            89 -278 rmoveto
            -55 -44 -44 -55 -55 44 -44 55 56 44 44 55 55 -44 44 -56 hvcurveto
            364 hmoveto
            117 callsubr
          </CharString>
          <CharString index="144">
            145 hlineto
            558 780 24 110 rlineto
            -600 hlineto
            -24 -108 rlineto
            462 hlineto
            -1 -9 rlineto
            endchar
          </CharString>
          <CharString index="145">
            56 46 45 57 56 -46 46 -56 -57 return
          </CharString>
          <CharString index="146">
            324 240 284 385 -39 callsubr
            return
          </CharString>
          <CharString index="147">
            rmoveto
            24 115 rlineto
            -995 hlineto
            -24 -115 rlineto
            return
          </CharString>
          <CharString index="148">
            rlineto
            -136 -91 callsubr
            return
          </CharString>
          <CharString index="149">
            241 86 callsubr
            return
          </CharString>
          <CharString index="150">
            rmoveto
            161 132 131 162 161 -132 131 -161 -161 -131 -131 -161 -162 131 -131 161 hvcurveto
            83 vmoveto
            -117 -96 93 117 116 96 93 117 118 96 -93 -116 -117 -96 -93 -118 hvcurveto
            endchar
          </CharString>
          <CharString index="151">
            hlineto
            39 183 65 callgsubr
            return
          </CharString>
          <CharString index="152">
            rmoveto
            -177 217 129 callgsubr
            196 -217 rlineto
            -277 9 rmoveto
            -3 0 -6 -5 vvcurveto
            -153 126 -104 184 177 139 105 166 26 vhcurveto
            -118 hlineto
            -104 -21 -85 -67 -114 hhcurveto
            -114 -84 65 91 hvcurveto
            4 0 6 5 vvcurveto
            endchar
          </CharString>
          <CharString index="153">
            hmoveto
            178 837 rlineto
            14 hlineto
            213 -816 rlineto
            103 hlineto
            559 816 rlineto
            14 hlineto
            -178 -837 rlineto
            64 callsubr
            -154 hlineto
            -613 -895 rlineto
            -12 hlineto
            -233 895 rlineto
            -156 hlineto
            143 callsubr
            endchar
          </CharString>
          <CharString index="154">
            rlineto
            -138 -91 callsubr
            return
          </CharString>
          <CharString index="155">
            rmoveto
            24 114 rlineto
            -983 100 callsubr
            572 299 rmoveto
            60 46 45 62 61 -46 45 -60 -61 -47 -45 -61 -62 47 -45 61 hvcurveto
            -151 -706 rmoveto
            60 46 45 62 61 -46 46 -60 -61 -46 -46 -61 -62 46 -45 61 hvcurveto
            endchar
          </CharString>
          <CharString index="156">
            1077 rmoveto
            -860 91 callgsubr
            363 hlineto
            162 callsubr
            135 callgsubr
            363 hlineto
            endchar
          </CharString>
          <CharString index="157">
            1839 12 callsubr
            return
          </CharString>
          <CharString index="158">
            -88 callgsubr
            endchar
          </CharString>
          <CharString index="159">
            rmoveto
            23 111 rlineto
            -672 6 callgsubr
            return
          </CharString>
          <CharString index="160">
            rmoveto
            103 85 82 103 104 -85 81 -103 -103 -85 -81 -104 -103 84 -82 104 hvcurveto
            78 vmoveto
            -60 -45 47 60 60 45 46 60 60 45 -46 -60 -60 -46 -47 -59 hvcurveto
            103 522 rmoveto
            -155 -169 68 callsubr
            175 169 rlineto
            endchar
          </CharString>
          <CharString index="161">
            rmoveto
            -153 290 rlineto
            -160 hlineto
            174 -290 rlineto
            359 -158 -67 callsubr
          </CharString>
          <CharString index="162">
            hmoveto
            -16 callgsubr
            68 320 rlineto
            207 hlineto
            26 123 rlineto
            -207 hlineto
            92 432 -34 callsubr
            -92 -433 rlineto
            -539 hlineto
            2 9 734 992 rlineto
            -149 hlineto
            -740 -1000 -26 -123 rlineto
            692 hlineto
            endchar
          </CharString>
          <CharString index="163">
            rlineto
            -16 callgsubr
            return
          </CharString>
          <CharString index="164">
            rmoveto
            644 hlineto
            22 101 rlineto
            -644 hlineto
            186 123 rmoveto
            123 callgsubr
            111 callgsubr
            -45 -44 -56 -55 45 -44 55 hvcurveto
            endchar
          </CharString>
          <CharString index="165">
            rmoveto
            149 hlineto
            295 290 129 callgsubr
            176 -448 -67 callsubr
          </CharString>
          <CharString index="166">
            80 -95 -118 -33 -5 -41 -8 -39 hvcurveto
            -139 -651 rlineto
            return
          </CharString>
          <CharString index="167">
            1572 -103 callsubr
            return
          </CharString>
          <CharString index="168">
            rmoveto
            134 hlineto
            return
          </CharString>
          <CharString index="169">
            -733 483 1077 rmoveto
            6 callsubr
            -108 hhcurveto
            -16 -20 2 2 -14 hvcurveto
            -27 -116 rlineto
            -3 17 38 -2 18 hhcurveto
            178 102 81 193 41 hvcurveto
            return
          </CharString>
          <CharString index="170">
            rmoveto
            59 47 47 59 59 -47 46 -59 -58 -48 -46 -59 -59 48 -47 58 hvcurveto
            return
          </CharString>
          <CharString index="171">
            134 -3 callgsubr
            return
          </CharString>
          <CharString index="172">
            134 callsubr
            -575 112 callsubr
            -133 hlineto
            143 callsubr
            return
          </CharString>
          <CharString index="173">
            rmoveto
            67 -171 37 -223 -256 vvcurveto
            -429 -188 -426 -299 -305 vhcurveto
            148 hlineto
            275 278 197 431 445 vvcurveto
            234 -44 268 -73 154 vhcurveto
            endchar
          </CharString>
          <CharString index="174">
            rmoveto
            -67 171 -37 223 256 vvcurveto
            429 188 426 298 305 vhcurveto
            -148 hlineto
            -274 -278 -197 -431 -445 vvcurveto
            -234 44 -269 73 -153 vhcurveto
            endchar
          </CharString>
          <CharString index="175">
            rlineto
            126 hlineto
            return
          </CharString>
          <CharString index="176" raw="1">
            c01df95b 06a5f710 05fde630 0a0e
          </CharString>
          <CharString index="177">
            rmoveto
            971 hlineto
            24 114 rlineto
            -971 hlineto
            1035 294 rmoveto
            -742 250 3 13 847 248 28 131 -1042 -325 -24 -114 903 -325 rlineto
            endchar
          </CharString>
          <CharString index="178">
            -191 -29 callsubr
            return
          </CharString>
          <CharString index="179">
            -1440 -99 callsubr
          </CharString>
          <CharString index="180">
            32 76 callgsubr
            return
          </CharString>
          <CharString index="181">
            rlineto
            -136 hlineto
            return
          </CharString>
          <CharString index="182">
            -733 121 hmoveto
            13 callsubr
            -308 -1869 -101 callsubr
            return
          </CharString>
          <CharString index="183">
            rmoveto
            96 79 -240 308 381 315 -73 89 -381 -313 -245 310 -96 -80 243 -311 -380 -314 73 -90 380 314 rlineto
            endchar
          </CharString>
          <CharString index="184">
            1317 84 callsubr
            return
          </CharString>
          <CharString index="185">
            hvcurveto
            -360 hlineto
            140 655 rlineto
            return
          </CharString>
          <CharString index="186">
            101 rmoveto
            -174 -122 129 210 286 174 251 246 197 136 -166 -268 -42 hvcurveto
            -239 -31 -169 -203 -215 hhcurveto
            return
          </CharString>
          <CharString index="187">
            -97 485 97 rmoveto
            -139 -96 78 111 132 116 83 203 11 hvcurveto
            321 17 -32 -149 rlineto
            -162 -36 -157 -121 -180 hhcurveto
            return
          </CharString>
          <CharString index="188">
            hmoveto
            -44 callgsubr
            -1099 -91 callsubr
            138 hlineto
            281 1318 rlineto
            824 hlineto
            -280 -1318 rlineto
            endchar
          </CharString>
          <CharString index="189">
            517 150 callsubr
            -238 -508 rlineto
            124 hlineto
            251 116 callsubr
            return
          </CharString>
          <CharString index="190">
            hlineto
            -320 -1506 rlineto
            return
          </CharString>
          <CharString index="191">
            rmoveto
            -40 callgsubr
            return
          </CharString>
          <CharString index="192" raw="1">
            05fb199d 1df60b  
          </CharString>
          <CharString index="193">
            1801 rmoveto
            -87 callgsubr
            -237 224 rlineto
            return
          </CharString>
          <CharString index="194">
            rmoveto
            -120 hlineto
            -125 -15 -86 -72 -130 hhcurveto
            -123 -77 64 103 return
          </CharString>
          <CharString index="195">
            46 -57 -57 -46 -46 -57 -57 46 -46 57 hvcurveto
            endchar
          </CharString>
          <CharString index="196" raw="1">
            fbb115f7 0f06eff8 2d050b 
          </CharString>
          <CharString index="197" raw="1">
            fbb115f7 1006eef8 2d050b 
          </CharString>
          <CharString index="198">
            1578 -72 callgsubr
            return
          </CharString>
          <CharString index="199">
            656 149 rmoveto
            -259 395 2 13 457 426 rlineto
            -170 hlineto
            -447 -414 -1 -6 271 -414 rlineto
            return
          </CharString>
          <CharString index="200">
            rmoveto
            384 1806 rlineto
            -430 hlineto
            -22 -105 rlineto
            301 hlineto
            -339 -1595 rlineto
            -301 hlineto
            -22 -106 rlineto
            endchar
          </CharString>
          <CharString index="201">
            hmoveto
            153 hlineto
            940 1315 28 128 rlineto
            -919 hlineto
            -27 -123 rlineto
            774 hlineto
            -2 -12 rlineto
            endchar
          </CharString>
          <CharString index="202">
            rmoveto
            21 102 rlineto
            -643 hlineto
            -21 -102 rlineto
            endchar
          </CharString>
          <CharString index="203">
            hvcurveto
            -27 -123 rlineto
            -1 5 41 -14 94 hhcurveto
            292 213 210 280 244 -149 170 -275 return
          </CharString>
          <CharString index="204">
            rmoveto
            257 532 rlineto
            -146 hlineto
            return
          </CharString>
          <CharString index="205">
            vvcurveto
            -105 92 -74 130 return
          </CharString>
          <CharString index="206">
            1 8 1 9 hvcurveto
            return
          </CharString>
          <CharString index="207">
            hlineto
            -24 -114 rlineto
            return
          </CharString>
          <CharString index="208">
            26 118 rlineto
            return
          </CharString>
          <CharString index="209">
            -65 278 hmoveto
            53 callgsubr
            711 hlineto
            26 124 rlineto
            -850 -91 callsubr
            return
          </CharString>
          <CharString index="210">
            rmoveto
            107 callgsubr
          </CharString>
          <CharString index="211">
            -57 45 -45 57 hvcurveto
            return
          </CharString>
          <CharString index="212">
            137 642 rlineto
            return
          </CharString>
          <CharString index="213">
            -32 callsubr
            endchar
          </CharString>
          <CharString index="214" raw="1">
            fbb115f7 1006ebf8 20050b 
          </CharString>
          <CharString index="215">
            rlineto
            -180 hlineto
            return
          </CharString>
          <CharString index="216">
            -16 callgsubr
            139 return
          </CharString>
          <CharString index="217">
            -695 277 121 callsubr
          </CharString>
          <CharString index="218">
            240 -8 rmoveto
            33 callsubr
            return
          </CharString>
          <CharString index="219">
            hlineto
            205 966 rlineto
            return
          </CharString>
          <CharString index="220">
            -19 hvcurveto
            42 -83 rlineto
            return
          </CharString>
          <CharString index="221">
            -717 264 hmoveto
            284 1335 128 callsubr
            -283 159 callgsubr
            return
          </CharString>
          <CharString index="222">
            207 rlineto
            -170 hlineto
            endchar
          </CharString>
          <CharString index="223">
            508 rlineto
            219 hmoveto
            -238 -508 rlineto
            123 hlineto
            252 508 rlineto
            return
          </CharString>
          <CharString index="224">
            -55 -44 -44 -55 -55 44 -44 55 55 44 44 55 55 -44 44 -55 hvcurveto
            endchar
          </CharString>
          <CharString index="225">
            508 77 callgsubr
            -109 -508 rlineto
            return
          </CharString>
          <CharString index="226">
            hvcurveto
            -27 -117 rlineto
            return
          </CharString>
          <CharString index="227">
            hlineto
            23 109 rlineto
            return
          </CharString>
          <CharString index="228">
            hmoveto
            -61 callsubr
          </CharString>
          <CharString index="229">
            rmoveto
            385 1810 rlineto
            -114 hlineto
            -384 -1810 rlineto
            endchar
          </CharString>
          <CharString index="230">
            -50 102 -108 hhcurveto
            -100 return
          </CharString>
          <CharString index="231">
            16 119 rmoveto
            -191 return
          </CharString>
          <CharString index="232">
            1577 -80 callgsubr
            return
          </CharString>
          <CharString index="233">
            hlineto
            281 144 callsubr
            -139 hlineto
            return
          </CharString>
          <CharString index="234">
            24 4 5 17 vhcurveto
            return
          </CharString>
          <CharString index="235">
            rlineto
            -137 hlineto
            return
          </CharString>
          <CharString index="236">
            -68 -115 hhcurveto
            return
          </CharString>
          <CharString index="237">
            1577 -11 callsubr
            return
          </CharString>
          <CharString index="238">
            rmoveto
            1321 100 callgsubr
            -1321 hlineto
            endchar
          </CharString>
          <CharString index="239">
            rmoveto
            2048 100 callgsubr
            -2048 hlineto
            endchar
          </CharString>
          <CharString index="240">
            hmoveto
            64 callsubr
            return
          </CharString>
          <CharString index="241">
            -18 callgsubr
            162 callsubr
            rlineto
            return
          </CharString>
          <CharString index="242">
            rmoveto
            -154 hlineto
            -340 return
          </CharString>
          <CharString index="243">
            -645 hlineto
            -21 -101 rlineto
            return
          </CharString>
          <CharString index="244" raw="1">
            066dfb10 050b  
          </CharString>
          <CharString index="245">
            hlineto
            206 119 callgsubr
            return
          </CharString>
          <CharString index="246">
            hvcurveto
            12 hlineto
            -39 return
          </CharString>
          <CharString index="247" raw="1">
            0642fbea 05fb246b 5150fb04 1b0b
          </CharString>
          <CharString index="248">
            532 rlineto
            -145 hlineto
            -227 -532 rlineto
            endchar
          </CharString>
          <CharString index="249">
            57 -46 45 -56 -57 -45 -45 -57 return
          </CharString>
          <CharString index="250">
            -229 -1077 rlineto
            return
          </CharString>
          <CharString index="251">
            1319 rlineto
            return
          </CharString>
          <CharString index="252">
            rlineto
            -128 hlineto
            return
          </CharString>
          <CharString index="253">
            101 rmoveto
            -190 -29 callsubr
            313 return
          </CharString>
          <CharString index="254" raw="1">
            1c06d805 2306fc08 1cf92805 0b
          </CharString>
          <CharString index="255">
            rmoveto
            -181 476 -381 -476 rlineto
            endchar
          </CharString>
          <CharString index="256">
            -307 -19 callgsubr
            return
          </CharString>
          <CharString index="257">
            1443 rmoveto
            return
          </CharString>
          <CharString index="258">
            22 103 rlineto
            -2 return
          </CharString>
          <CharString index="259">
            396 rlineto
            -174 112 callsubr
            return
          </CharString>
          <CharString index="260">
            -48 -64 -85 -80 98 callsubr
            vhcurveto
            return
          </CharString>
          <CharString index="261">
            rmoveto
            103 562 -490 -281 rlineto
            endchar
          </CharString>
          <CharString index="262">
            57 -19 callsubr
            57 45 return
          </CharString>
          <CharString index="263">
            rlineto
            126 25 68 return
          </CharString>
          <CharString index="264">
            hvcurveto
            138 hlineto
            return
          </CharString>
          <CharString index="265">
            rlineto
            -157 hlineto
            return
          </CharString>
          <CharString index="266">
            rmoveto
            132 hlineto
            return
          </CharString>
          <CharString index="267">
            rlineto
            148 hlineto
            return
          </CharString>
          <CharString index="268" raw="1">
            1c04ce05 0b  
          </CharString>
          <CharString index="269">
            -205 -966 return
          </CharString>
          <CharString index="270">
            rlineto
            -155 hlineto
            return
          </CharString>
        <CharString name=".notdef">
          825 -62 -494 rmoveto
          1848 hlineto
          66 308 rlineto
          -1849 hlineto
          26 119 rmoveto
          1848 hlineto
          65 308 157 callgsubr
          26 120 rmoveto
          1848 hlineto
          65 307 157 callgsubr
          26 120 rmoveto
          1848 hlineto
          65 307 157 callgsubr
          25 120 rmoveto
          1849 hlineto
          65 308 157 callgsubr
          25 119 rmoveto
          1848 hlineto
          66 308 157 callgsubr
          endchar
        </CharString>
        <CharString name=".null">
          endchar
        </CharString>
        <CharString name="A">
          140 892 -102 callsubr
          endchar
        </CharString>
        <CharString name="A.mini">
          -83 callgsubr
          endchar
        </CharString>
        <CharString name="AE">
          732 -38 callsubr
          endchar
        </CharString>
        <CharString name="AEacute">
          732 -38 callsubr
          495 1134 rmoveto
          64 callgsubr
        </CharString>
        <CharString name="AEmacron">
          732 -38 callsubr
          766 1281 -66 callgsubr
        </CharString>
        <CharString name="Aacute">
          140 892 -102 callsubr
          14 1134 rmoveto
          64 callgsubr
        </CharString>
        <CharString name="Abreve">
          140 892 -102 callsubr
          -369 1408 -73 callgsubr
          endchar
        </CharString>
        <CharString name="Abreveacute">
          140 892 -102 callsubr
          -145 1396 42 callgsubr
        </CharString>
        <CharString name="Abreveacute.mini">
          -83 callgsubr
          -382 1301 130 callgsubr
          26 vhcurveto
          -118 78 callgsubr
          108 -9 rmoveto
          150 hlineto
          285 115 callsubr
        </CharString>
        <CharString name="Abrevedotbelow">
          140 892 -102 callsubr
          -369 1408 -73 callgsubr
          -202 -2214 -99 callsubr
        </CharString>
        <CharString name="Abrevegrave">
          140 892 -102 callsubr
          57 1396 45 callsubr
        </CharString>
        <CharString name="Abrevegrave.mini">
          -83 callgsubr
          -382 1301 130 callgsubr
          27 vhcurveto
          -119 78 callgsubr
          313 -9 rmoveto
          -177 207 129 callgsubr
          196 -207 rlineto
          endchar
        </CharString>
        <CharString name="Abrevehookabove">
          140 892 -102 callsubr
          -189 1578 25 callgsubr
        </CharString>
        <CharString name="Abrevehookabove.mini">
          -83 callgsubr
          -382 1301 rmoveto
          -166 123 -105 187 147 callgsubr
          -105 -21 -85 -66 -113 hhcurveto
          -115 -79 65 106 -3 hvcurveto
          62 168 rmoveto
          9 27 37 7 31 hhcurveto
          65 38 -26 -46 -48 -40 -38 -66 -13 hvcurveto
          41 -77 rlineto
          107 28 70 75 87 vvcurveto
          90 -76 58 -119 -32 -40 -7 -11 -25 vhcurveto
          endchar
        </CharString>
        <CharString name="Abrevetilde">
          140 892 -102 callsubr
          87 1402 19 callsubr
        </CharString>
        <CharString name="Abrevetilde.mini">
          -83 callgsubr
          -407 1250 24 callgsubr
        </CharString>
        <CharString name="Acaron">
          140 892 -102 callsubr
          -136 1134 -80 callsubr
          endchar
        </CharString>
        <CharString name="Acircumflex">
          140 892 -102 callsubr
          62 1431 -73 callsubr
          endchar
        </CharString>
        <CharString name="Acircumflexacute">
          23 callsubr
          51 24 108 callgsubr
          231 rlineto
          -167 hlineto
          endchar
        </CharString>
        <CharString name="Acircumflexacute.mini">
          -83 callgsubr
          33 1254 rmoveto
          -151 hlineto
          -87 callgsubr
          -186 248 108 callgsubr
          221 129 callgsubr
          endchar
        </CharString>
        <CharString name="Acircumflexdotbelow">
          140 892 -102 callsubr
          62 1431 -73 callsubr
          -706 -1940 -99 callsubr
        </CharString>
        <CharString name="Acircumflexgrave">
          23 callsubr
          289 24 rmoveto
          -175 231 rlineto
          -165 hlineto
          194 -231 rlineto
          endchar
        </CharString>
        <CharString name="Acircumflexgrave.mini">
          -83 callgsubr
          33 1254 rmoveto
          -151 hlineto
          -87 callgsubr
          53 248 rmoveto
          -175 221 rlineto
          -166 hlineto
          194 -221 rlineto
          endchar
        </CharString>
        <CharString name="Acircumflexhookabove">
          23 callsubr
          63 136 rmoveto
          9 22 38 5 37 hhcurveto
          67 36 -28 -44 -43 -34 -38 -60 -24 hvcurveto
          60 -71 rlineto
          88 37 63 79 78 vvcurveto
          89 -79 60 -120 -38 -40 -7 -9 -21 vhcurveto
          endchar
        </CharString>
        <CharString name="Acircumflexhookabove.mini">
          -83 callgsubr
          33 1254 rmoveto
          -151 hlineto
          -87 callgsubr
          -192 363 rmoveto
          9 25 37 6 33 hhcurveto
          65 37 -27 -46 -48 -43 -42 -60 -17 hvcurveto
          65 -67 rlineto
          94 33 57 73 82 vvcurveto
          91 -77 59 -119 -33 -39 -8 -11 -25 vhcurveto
          endchar
        </CharString>
        <CharString name="Acircumflextilde">
          140 892 -102 callsubr
          94 1402 -34 callgsubr
        </CharString>
        <CharString name="Acircumflextilde.mini">
          -83 callgsubr
          33 1254 rmoveto
          -151 hlineto
          -87 callgsubr
          -154 268 rmoveto
          100 88 65 126 23 hvcurveto
          -110 hlineto
          -58 -18 -32 -31 -51 -78 123 callsubr
          -88 -66 -126 -23 hvcurveto
          110 hlineto
          58 19 31 32 51 79 50 -102 107 hhcurveto
          endchar
        </CharString>
        <CharString name="Acyrillic">
          146 895 -102 callsubr
          endchar
        </CharString>
        <CharString name="Adblgrave">
          140 892 -102 callsubr
          -323 1134 -25 callgsubr
          endchar
        </CharString>
        <CharString name="Adieresis">
          140 892 -102 callsubr
          -231 1125 -105 callgsubr
        </CharString>
        <CharString name="Adieresismacron">
          140 892 -102 callsubr
          -226 1335 -31 callgsubr
        </CharString>
        <CharString name="Adieresismacron.mini">
          -83 callgsubr
          -331 1368 rmoveto
          644 hlineto
          22 101 rlineto
          -645 hlineto
          69 -439 -69 callsubr
          endchar
        </CharString>
        <CharString name="Adotaccent">
          140 892 -102 callsubr
          -46 1134 -99 callsubr
        </CharString>
        <CharString name="Adotbelow">
          140 892 -102 callsubr
          -455 -806 -99 callsubr
        </CharString>
        <CharString name="Adotmacron">
          140 892 -102 callsubr
          -47 1135 27 callgsubr
          393 438 rmoveto
          -644 hlineto
          -22 -101 rlineto
          645 hlineto
          endchar
        </CharString>
        <CharString name="Adotmacron.mini">
          -83 callgsubr
          -59 1031 27 callgsubr
          372 337 90 callgsubr
          endchar
        </CharString>
        <CharString name="Agrave">
          140 892 -102 callsubr
          -150 1134 -11 callsubr
          endchar
        </CharString>
        <CharString name="Ahookabove">
          140 892 -102 callsubr
          -175 1345 -57 callsubr
          endchar
        </CharString>
        <CharString name="Ainvertedbreve">
          140 892 -102 callsubr
          289 1134 -49 callgsubr
          endchar
        </CharString>
        <CharString name="Alphagreek">
          140 892 -102 callsubr
          endchar
        </CharString>
        <CharString name="Alphatonosgreek">
          142 893 -102 callsubr
          -772 673 32 callsubr
        </CharString>
        <CharString name="Amacron">
          140 892 -102 callsubr
          286 1281 -66 callgsubr
        </CharString>
        <CharString name="Aogonek">
          140 1144 -304 rmoveto
          82 callgsubr
          -83 -52 38 60 87 89 72 145 42 hvcurveto
          27 8 -233 -37 callgsubr
          -129 hlineto
          -850 -1443 160 callsubr
          254 443 rlineto
          609 hlineto
          63 -417 rlineto
          -169 -53 -89 -101 -109 98 callsubr
          24 127 callsubr
          -230 1669 rmoveto
          12 hlineto
          110 -702 rlineto
          -526 hlineto
          endchar
        </CharString>
        <CharString name="Aogonek.mini">
          140 892 1262 rmoveto
          12 hlineto
          110 -702 rlineto
          -526 hlineto
          605 -534 rmoveto
          -169 -53 -89 -101 -109 66 callgsubr
          87 89 72 145 42 hvcurveto
          27 8 -233 -37 callgsubr
          -129 hlineto
          -850 -1443 160 callsubr
          254 443 rlineto
          609 hlineto
          endchar
        </CharString>
        <CharString name="Aring">
          140 892 -102 callsubr
          -26 1120 -86 callsubr
        </CharString>
        <CharString name="Aringacute">
          140 892 -102 callsubr
          -38 1095 53 callsubr
        </CharString>
        <CharString name="Aringacute.mini">
          -83 callgsubr
          -177 1148 49 callgsubr
        </CharString>
        <CharString name="Aringbelow">
          140 892 -102 callsubr
          -472 -992 -86 callsubr
        </CharString>
        <CharString name="Aringbelow.mini">
          140 892 -102 callsubr
          -459 -625 8 callsubr
        </CharString>
        <CharString name="Atilde">
          140 892 -102 callsubr
          99 1129 -103 callsubr
          endchar
        </CharString>
        <CharString name="B">
          100 700 -78 callgsubr
          endchar
        </CharString>
        <CharString name="Bdotaccent">
          100 700 -78 callgsubr
          197 1458 -99 callsubr
        </CharString>
        <CharString name="Bdotbelow">
          100 700 -78 callgsubr
          -169 -482 -99 callsubr
        </CharString>
        <CharString name="Becyrillic">
          72 676 hmoveto
          327 219 228 256 220 -179 148 -268 hvcurveto
          -317 hlineto
          100 467 rlineto
          698 hlineto
          26 124 rlineto
          -837 -91 callsubr
          165 122 rmoveto
          129 607 rlineto
          316 hlineto
          202 130 -93 -172 -194 -178 -148 -239 hvcurveto
          endchar
        </CharString>
        <CharString name="Betagreek">
          100 700 -78 callgsubr
          endchar
        </CharString>
        <CharString name="Blinebelow">
          100 700 -78 callgsubr
          166 -323 -66 callgsubr
        </CharString>
        <CharString name="C">
          238 1362 990 -93 callgsubr
          endchar
        </CharString>
        <CharString name="Cacute">
          241 1362 990 -93 callgsubr
          -289 588 rmoveto
          64 callgsubr
        </CharString>
        <CharString name="Ccaron">
          241 1362 990 -93 callgsubr
          -439 588 -80 callsubr
          endchar
        </CharString>
        <CharString name="Ccedilla">
          241 1500 990 rmoveto
          1 5 0 6 7 vvcurveto
          262 -227 203 -314 -429 -322 -387 -519 -340 192 -226 302 -28 vhcurveto
          -74 -114 -11 -72 52 -1 rlineto
          87 -3 49 -32 -52 vvcurveto
          -53 -48 -34 -72 -48 -67 14 18 -36 vhcurveto
          -18 -87 rlineto
          -23 46 69 -14 56 hhcurveto
          136 97 77 109 89 -63 54 -117 12 hvcurveto
          70 110 282 15 213 153 69 240 rlinecurve
          -144 hlineto
          -169 -58 -178 -113 -213 hhcurveto
          -268 -164 183 302 429 264 335 336 240 163 -143 -198 10 hvcurveto
          -6 0 -5 -1 -4 vhcurveto
          endchar
        </CharString>
        <CharString name="Ccedilla.mini">
          241 1500 990 rmoveto
          1 5 0 6 7 vvcurveto
          262 -227 203 -314 -429 -322 -387 -519 -339 190 -225 299 -30 vhcurveto
          -69 -111 -10 -56 61 -2 rlineto
          87 -3 42 -28 -47 vvcurveto
          -47 -46 -26 -72 -39 -46 9 14 -32 vhcurveto
          -17 -80 rlineto
          -16 34 66 -12 38 hhcurveto
          135 90 62 99 91 -61 52 -119 7 hvcurveto
          59 92 287 10 219 155 70 243 rlinecurve
          -144 hlineto
          -169 -58 -178 -113 -213 hhcurveto
          -268 -164 183 302 429 264 335 336 240 163 -143 -198 10 hvcurveto
          -6 0 -5 -1 -4 vhcurveto
          endchar
        </CharString>
        <CharString name="Ccedillaacute">
          241 1462 1875 rmoveto
          -175 hlineto
          -373 -297 rlineto
          159 hlineto
          427 -588 rmoveto
          1 5 0 6 7 vvcurveto
          262 -227 203 -314 -429 -322 -387 -519 -340 192 -226 302 -28 vhcurveto
          -74 -114 -11 -72 52 -1 rlineto
          87 -3 49 -32 -52 vvcurveto
          -53 -48 -34 -72 -48 -67 14 18 -36 vhcurveto
          -18 -87 rlineto
          -23 46 69 -14 56 hhcurveto
          136 97 77 109 89 -63 54 -117 12 hvcurveto
          70 110 282 15 213 153 69 240 rlinecurve
          -144 hlineto
          -169 -58 -178 -113 -213 hhcurveto
          -268 -164 183 302 429 264 335 336 240 163 -143 -198 10 hvcurveto
          -6 0 -5 -1 -4 vhcurveto
          endchar
        </CharString>
        <CharString name="Ccedillaacute.mini">
          241 1462 1875 rmoveto
          -175 hlineto
          -373 -297 rlineto
          159 hlineto
          427 -588 rmoveto
          1 5 0 6 7 vvcurveto
          262 -227 203 -314 -429 -322 -387 -519 -339 190 -225 299 -30 vhcurveto
          -69 -111 -10 -56 61 -2 rlineto
          87 -3 42 -28 -47 vvcurveto
          -47 -46 -26 -72 -39 -46 9 14 -32 vhcurveto
          -17 -80 rlineto
          -16 34 66 -12 38 hhcurveto
          135 90 62 99 91 -61 52 -119 7 hvcurveto
          59 92 287 10 219 155 70 243 rlinecurve
          -144 hlineto
          -169 -58 -178 -113 -213 hhcurveto
          -268 -164 183 302 429 264 335 336 240 163 -143 -198 10 hvcurveto
          -6 0 -5 -1 -4 vhcurveto
          endchar
        </CharString>
        <CharString name="Ccircumflex">
          241 1362 990 -93 callgsubr
          -232 885 -73 callsubr
          endchar
        </CharString>
        <CharString name="Cdotaccent">
          241 1362 990 -93 callgsubr
          -349 588 -99 callsubr
        </CharString>
        <CharString name="Checyrillic">
          34 callsubr
          endchar
        </CharString>
        <CharString name="Chigreek">
          144 39 58 callgsubr
        </CharString>
        <CharString name="D">
          253 435 1443 51 callsubr
        </CharString>
        <CharString name="Dcaron">
          253 435 1443 -88 callgsubr
          463 1455 -80 callsubr
          endchar
        </CharString>
        <CharString name="Dcircumflexbelow">
          253 435 1443 -88 callgsubr
          290 -265 -57 callgsubr
          endchar
        </CharString>
        <CharString name="Dcommaaccent">
          253 435 1443 -88 callgsubr
          132 -628 -36 callsubr
        </CharString>
        <CharString name="Dcommaaccent.mini">
          253 435 1443 -88 callgsubr
          146 -554 -22 callsubr
        </CharString>
        <CharString name="Dcroat">
          253 294 122 rmoveto
          119 559 rlineto
          250 hlineto
          27 124 rlineto
          -251 hlineto
          110 516 rlineto
          288 hlineto
          299 179 -185 -307 -406 -269 -301 -363 hvcurveto
          -248 1321 rmoveto
          -135 -638 rlineto
          -182 hlineto
          -26 -124 rlineto
          181 hlineto
          -144 -681 rlineto
          549 hlineto
          442 336 356 480 375 -225 232 -383 hvcurveto
          endchar
        </CharString>
        <CharString name="Ddotaccent">
          253 435 1443 -88 callgsubr
          553 1455 -99 callsubr
        </CharString>
        <CharString name="Ddotbelow">
          253 435 1443 -88 callgsubr
          203 -485 -99 callsubr
        </CharString>
        <CharString name="Decyrillic">
          262 480 503 rmoveto
          224 816 rlineto
          609 hlineto
          -254 -1195 rlineto
          -769 hlineto
          3 10 93 82 49 121 45 166 rlinecurve
          -370 -503 rmoveto
          1118 120 callgsubr
          127 hlineto
          87 409 rlineto
          -183 hlineto
          281 144 callsubr
          -874 hlineto
          -253 -927 -53 -194 -76 -144 -112 -54 rlinecurve
          -102 hlineto
          -87 -409 70 callgsubr
          endchar
        </CharString>
        <CharString name="Deltagreek">
          148 1215 hmoveto
          21 97 -235 1346 145 callsubr
          -810 -1347 -21 -96 rlineto
          859 1272 rmoveto
          5 hlineto
          192 -1138 -3 -10 rlineto
          -867 hlineto
          3 12 rlineto
          endchar
        </CharString>
        <CharString name="Djecyrillic">
          482 513 hmoveto
          140 hlineto
          121 568 rlineto
          99 80 155 140 callgsubr
          -151 -161 -213 -71 -39 12 1 -5 hvcurveto
          -27 -123 rlineto
          -1 5 41 -14 94 hhcurveto
          292 214 210 280 244 -150 170 -275 -144 -129 -66 -83 -85 hvcurveto
          -11 hlineto
          123 579 rlineto
          483 hlineto
          26 123 rlineto
          -1103 hlineto
          -27 -123 rlineto
          482 hlineto
          endchar
        </CharString>
        <CharString name="Dlinebelow">
          253 435 1443 -88 callgsubr
          538 -326 -66 callgsubr
        </CharString>
        <CharString name="Dzecyrillic">
          51 129 392 rmoveto
          -102 callgsubr
          endchar
        </CharString>
        <CharString name="Dzhecyrillic">
          266 1237 hmoveto
          -44 callgsubr
          -138 hlineto
          -281 -1318 rlineto
          -824 hlineto
          280 1318 41 callsubr
          486 120 callgsubr
          127 hlineto
          61 285 rlineto
          endchar
        </CharString>
        <CharString name="E">
          -97 callgsubr
          endchar
        </CharString>
        <CharString name="E.mini">
          -43 callsubr
          endchar
        </CharString>
        <CharString name="Eacute">
          -97 callgsubr
          -18 125 callsubr
          endchar
        </CharString>
        <CharString name="Ebreve">
          -97 callgsubr
          -401 1851 -73 callgsubr
          endchar
        </CharString>
        <CharString name="Ecaron">
          -97 callgsubr
          -168 1577 -80 callsubr
          endchar
        </CharString>
        <CharString name="Ecedilla">
          -27 1281 1319 rmoveto
          26 124 rlineto
          -872 hlineto
          -307 -1443 rlineto
          383 hlineto
          -91 -141 -11 -72 52 -1 rlineto
          87 -3 49 -32 -52 vvcurveto
          -53 -48 -34 -72 -48 -67 14 18 -36 vhcurveto
          -18 -87 rlineto
          -23 46 69 -14 56 hhcurveto
          136 97 77 109 89 -63 54 -117 12 hvcurveto
          89 139 rlineto
          379 hlineto
          26 124 rlineto
          -733 hlineto
          118 554 rlineto
          696 hlineto
          26 122 rlineto
          -696 hlineto
          111 519 rlineto
          endchar
        </CharString>
        <CharString name="Ecedilla.mini">
          -27 1281 1319 rmoveto
          26 124 rlineto
          -872 hlineto
          -307 -1443 rlineto
          378 hlineto
          -86 -138 -10 -56 61 -2 rlineto
          87 -3 42 -28 -47 vvcurveto
          -47 -46 -26 -72 -39 -46 9 14 -32 vhcurveto
          -17 -80 rlineto
          -16 34 66 -12 38 hhcurveto
          135 90 62 99 91 -61 52 -119 7 hvcurveto
          78 121 rlineto
          391 hlineto
          26 124 rlineto
          -733 hlineto
          118 554 rlineto
          696 hlineto
          26 122 rlineto
          -696 hlineto
          111 519 rlineto
          endchar
        </CharString>
        <CharString name="Ecedillabreve">
          -27 1133 1851 rmoveto
          -106 -21 -84 -68 -115 hhcurveto
          -115 -83 67 92 hvcurveto
          4 0 6 5 vvcurveto
          -116 hlineto
          -3 0 -6 -5 vvcurveto
          -154 125 -106 185 178 138 107 167 26 vhcurveto
          30 -532 rmoveto
          26 124 rlineto
          -872 hlineto
          -307 -1443 rlineto
          383 hlineto
          -91 -141 -11 -72 52 -1 rlineto
          87 -3 49 -32 -52 vvcurveto
          -53 -48 -34 -72 -48 -67 14 18 -36 vhcurveto
          -18 -87 rlineto
          -23 46 69 -14 56 hhcurveto
          136 97 77 109 89 -63 54 -117 12 hvcurveto
          89 139 rlineto
          379 hlineto
          26 124 rlineto
          -733 hlineto
          118 554 rlineto
          696 hlineto
          26 122 rlineto
          -696 hlineto
          111 519 rlineto
          endchar
        </CharString>
        <CharString name="Ecedillabreve.mini">
          -27 1133 1851 rmoveto
          -106 -21 -84 -68 -115 hhcurveto
          -115 -83 67 92 hvcurveto
          4 0 6 5 vvcurveto
          -116 hlineto
          -3 0 -6 -5 vvcurveto
          -154 125 -106 185 178 138 107 167 26 vhcurveto
          30 -532 rmoveto
          26 124 rlineto
          -872 hlineto
          -307 -1443 rlineto
          378 hlineto
          -86 -138 -10 -56 61 -2 rlineto
          87 -3 42 -28 -47 vvcurveto
          -47 -46 -26 -72 -39 -46 9 14 -32 vhcurveto
          -17 -80 rlineto
          -16 34 66 -12 38 hhcurveto
          135 90 62 99 91 -61 52 -119 7 hvcurveto
          78 121 rlineto
          391 hlineto
          26 124 rlineto
          -733 hlineto
          118 554 rlineto
          696 hlineto
          26 122 rlineto
          -696 hlineto
          111 519 rlineto
          endchar
        </CharString>
        <CharString name="Ecircumflex">
          -97 callgsubr
          39 92 callgsubr
          endchar
        </CharString>
        <CharString name="Ecircumflexacute">
          -97 callgsubr
          -138 86 callsubr
          51 24 108 callgsubr
          231 rlineto
          -167 hlineto
          endchar
        </CharString>
        <CharString name="Ecircumflexacute.mini">
          -43 callsubr
          -10 1693 rmoveto
          -151 hlineto
          -87 callgsubr
          -186 248 108 callgsubr
          221 129 callgsubr
          endchar
        </CharString>
        <CharString name="Ecircumflexbelow">
          -97 callgsubr
          -404 -143 -57 callgsubr
          endchar
        </CharString>
        <CharString name="Ecircumflexdotbelow">
          -97 callgsubr
          39 92 callgsubr
          -719 -1940 -99 callsubr
        </CharString>
        <CharString name="Ecircumflexgrave">
          -97 callgsubr
          -138 86 callsubr
          289 24 rmoveto
          -175 231 rlineto
          -165 hlineto
          194 -231 rlineto
          endchar
        </CharString>
        <CharString name="Ecircumflexgrave.mini">
          -43 callsubr
          -10 1693 rmoveto
          -151 hlineto
          -87 callgsubr
          53 248 rmoveto
          -175 221 rlineto
          -166 hlineto
          194 -221 rlineto
          endchar
        </CharString>
        <CharString name="Ecircumflexhookabove">
          -97 callgsubr
          -138 86 callsubr
          63 136 rmoveto
          9 22 38 5 37 hhcurveto
          67 36 -28 -44 -43 -34 -38 -60 -24 hvcurveto
          60 -71 rlineto
          88 37 63 79 78 vvcurveto
          89 -79 60 -120 -38 -40 -7 -9 -21 vhcurveto
          endchar
        </CharString>
        <CharString name="Ecircumflexhookabove.mini">
          -43 callsubr
          -10 1693 rmoveto
          -151 hlineto
          -87 callgsubr
          -192 363 rmoveto
          9 25 37 6 33 hhcurveto
          65 37 -27 -46 -48 -43 -42 -60 -17 hvcurveto
          65 -67 rlineto
          94 33 57 73 82 vvcurveto
          91 -77 59 -119 -33 -39 -8 -11 -25 vhcurveto
          endchar
        </CharString>
        <CharString name="Ecircumflextilde">
          -97 callgsubr
          62 1845 -34 callgsubr
        </CharString>
        <CharString name="Ecircumflextilde.mini">
          -43 callsubr
          -10 1693 rmoveto
          -151 hlineto
          -87 callgsubr
          -154 268 rmoveto
          100 88 65 126 23 hvcurveto
          -110 hlineto
          -58 -18 -32 -31 -51 -78 123 callsubr
          -88 -66 -126 -23 hvcurveto
          110 hlineto
          58 19 31 32 51 79 50 -102 107 hhcurveto
          endchar
        </CharString>
        <CharString name="Ecyrillic">
          9 callsubr
          endchar
        </CharString>
        <CharString name="Edblgrave">
          -97 callgsubr
          -356 1577 -25 callgsubr
          endchar
        </CharString>
        <CharString name="Edieresis">
          -97 callgsubr
          -263 1568 -105 callgsubr
        </CharString>
        <CharString name="Edotaccent">
          -97 callgsubr
          -78 1577 -99 callsubr
        </CharString>
        <CharString name="Edotbelow">
          -97 callgsubr
          -491 21 callsubr
          endchar
        </CharString>
        <CharString name="Efcyrillic">
          455 846 -17 rmoveto
          33 154 rlineto
          455 9 329 292 396 vvcurveto
          289 -201 180 -333 10 vhcurveto
          31 147 rlineto
          -135 hlineto
          -32 -147 rlineto
          -455 -9 -328 -292 -396 vvcurveto
          -289 200 -180 334 -10 vhcurveto
          -33 -154 rlineto
          -362 636 rmoveto
          322 260 240 359 9 vhcurveto
          -198 -930 rlineto
          -264 5 -157 134 220 vvcurveto
          1174 212 rmoveto
          -322 -259 -240 -359 -9 vhcurveto
          198 930 rlineto
          263 -5 157 -134 -220 vvcurveto
          endchar
        </CharString>
        <CharString name="Egrave">
          -97 callgsubr
          -182 130 callsubr
          endchar
        </CharString>
        <CharString name="Ehookabove">
          -97 callgsubr
          -207 1788 -57 callsubr
          endchar
        </CharString>
        <CharString name="Einvertedbreve">
          -97 callgsubr
          257 1577 -49 callgsubr
          endchar
        </CharString>
        <CharString name="Elcyrillic">
          180 1151 hmoveto
          -39 callgsubr
        </CharString>
        <CharString name="Emacron">
          -97 callgsubr
          253 1724 -66 callgsubr
        </CharString>
        <CharString name="Emacronacute">
          -97 callgsubr
          230 1619 17 callsubr
          285 220 rmoveto
          150 hlineto
          284 217 rlineto
          -169 hlineto
          endchar
        </CharString>
        <CharString name="Emacronacute.mini">
          -43 callsubr
          207 1511 17 callsubr
          279 220 rmoveto
          151 hlineto
          284 115 callsubr
        </CharString>
        <CharString name="Emacrongrave">
          -97 callgsubr
          230 1619 17 callsubr
          455 220 rmoveto
          -177 217 124 callgsubr
          -217 rlineto
          endchar
        </CharString>
        <CharString name="Emacrongrave.mini">
          -43 callsubr
          207 1511 17 callsubr
          456 220 rmoveto
          -178 207 124 callgsubr
          -207 rlineto
          endchar
        </CharString>
        <CharString name="Emcyrillic">
          559 269 38 callgsubr
        </CharString>
        <CharString name="Encyrillic">
          286 1258 15 callsubr
        </CharString>
        <CharString name="Eogonek">
          -27 128 hmoveto
          662 hlineto
          -2 -12 rlineto
          -119 -44 -76 -82 -99 66 callgsubr
          86 92 71 145 42 hvcurveto
          35 10 26 124 rlineto
          -733 hlineto
          118 554 rlineto
          696 hlineto
          26 122 rlineto
          -696 hlineto
          111 519 rlineto
          733 hlineto
          26 124 rlineto
          -872 hlineto
          endchar
        </CharString>
        <CharString name="Eogonek.mini">
          -27 790 hmoveto
          -2 -12 rlineto
          -119 -44 -76 -82 -99 66 callgsubr
          86 91 74 146 39 hvcurveto
          35 10 26 124 rlineto
          -100 callsubr
          endchar
        </CharString>
        <CharString name="Epsilongreek">
          -26 -98 callsubr
          endchar
        </CharString>
        <CharString name="Epsilontonosgreek">
          290 1342 -101 callgsubr
          -1061 1116 32 callsubr
        </CharString>
        <CharString name="Ercyrillic">
          71 447 1443 -62 callsubr
          endchar
        </CharString>
        <CharString name="Ereversedcyrillic">
          -77 callgsubr
          endchar
        </CharString>
        <CharString name="Escyrillic">
          263 1373 990 rmoveto
          138 hlineto
          1 5 0 6 7 vvcurveto
          262 -227 203 -314 -429 -322 -387 -519 -364 219 -233 339 303 232 157 252 73 vhcurveto
          -144 hlineto
          -169 -58 -178 -113 -213 hhcurveto
          -268 -164 183 302 429 264 335 335 241 163 -143 -198 10 hvcurveto
          -6 0 -5 -1 -4 vhcurveto
          endchar
        </CharString>
        <CharString name="Etagreek">
          266 1248 15 callsubr
        </CharString>
        <CharString name="Etatonosgreek">
          581 1564 hmoveto
          -89 callgsubr
          -1169 1116 32 callsubr
        </CharString>
        <CharString name="Eth">
          253 294 122 rmoveto
          119 559 rlineto
          250 hlineto
          27 124 rlineto
          -251 hlineto
          110 516 rlineto
          288 hlineto
          299 179 -185 -307 -406 -269 -301 -363 hvcurveto
          -248 1321 rmoveto
          -135 -638 rlineto
          -182 hlineto
          -26 -124 rlineto
          181 hlineto
          -144 -681 rlineto
          549 hlineto
          442 336 356 480 375 -225 232 -383 hvcurveto
          endchar
        </CharString>
        <CharString name="Etilde">
          -97 callgsubr
          67 60 callsubr
          endchar
        </CharString>
        <CharString name="Etildebelow">
          -97 callgsubr
          -353 -417 -103 callsubr
          endchar
        </CharString>
        <CharString name="Euro">
          98 210 926 rmoveto
          -23 -105 rlineto
          176 hlineto
          -10 -57 -5 -60 -63 vvcurveto
          -7 0 -6 -7 vvcurveto
          -205 hlineto
          -23 -106 rlineto
          239 hlineto
          -319 58 276 -218 370 hhcurveto
          31 24 2 3 9 hvcurveto
          27 125 rlineto
          -2 -10 -25 -3 -24 hhcurveto
          -313 -217 163 249 -57 hvcurveto
          484 hlineto
          23 106 rlineto
          -520 hlineto
          -1 9 0 9 9 vvcurveto
          61 6 58 10 54 vhcurveto
          550 hlineto
          22 105 rlineto
          -543 hlineto
          255 91 223 153 304 hhcurveto
          73 88 -13 -13 58 hvcurveto
          28 125 rlineto
          14 -64 -104 14 -71 hhcurveto
          -392 -284 -204 -331 -101 hvcurveto
          endchar
        </CharString>
        <CharString name="F">
          75 callgsubr
          endchar
        </CharString>
        <CharString name="Fdotaccent">
          75 callgsubr
          786 1577 -99 callsubr
        </CharString>
        <CharString name="G">
          282 -91 callgsubr
          endchar
        </CharString>
        <CharString name="Gacute">
          284 -91 callgsubr
          -371 1048 rmoveto
          64 callgsubr
        </CharString>
        <CharString name="Gammagreek">
          -90 268 hmoveto
          53 callgsubr
          698 hlineto
          26 124 rlineto
          -837 -91 callsubr
          endchar
        </CharString>
        <CharString name="Gbreve">
          284 -91 callgsubr
          -754 1322 -73 callgsubr
          endchar
        </CharString>
        <CharString name="Gcaron">
          284 -91 callgsubr
          -521 1048 -80 callsubr
          endchar
        </CharString>
        <CharString name="Gcircumflex">
          284 -91 callgsubr
          -314 1345 -73 callsubr
          endchar
        </CharString>
        <CharString name="Gcommaaccent">
          284 -91 callgsubr
          -768 -1035 -36 callsubr
        </CharString>
        <CharString name="Gcommaaccent.mini">
          284 -91 callgsubr
          -754 -961 -22 callsubr
        </CharString>
        <CharString name="Gdotaccent">
          284 -91 callgsubr
          -431 1048 -99 callsubr
        </CharString>
        <CharString name="Gecyrillic">
          102 callsubr
          endchar
        </CharString>
        <CharString name="Geupturncyrillic">
          -65 558 1319 60 callgsubr
          84 397 145 callsubr
          -57 -273 rlineto
          -723 -91 callsubr
          140 hlineto
          endchar
        </CharString>
        <CharString name="Gjecyrillic">
          102 callsubr
          785 125 callsubr
          endchar
        </CharString>
        <CharString name="Gmacron">
          284 -91 callgsubr
          -99 1195 -66 callgsubr
        </CharString>
        <CharString name="H">
          266 1248 15 callsubr
        </CharString>
        <CharString name="Hardsigncyrillic">
          292 908 hmoveto
          327 219 240 268 234 -179 157 -267 hvcurveto
          -307 hlineto
          116 544 rlineto
          -478 hlineto
          -27 -124 rlineto
          339 45 callgsubr
          611 777 rmoveto
          202 129 -101 -188 -208 -177 -158 -240 78 callsubr
          endchar
        </CharString>
        <CharString name="Hbar">
          266 1280 801 rmoveto
          -842 hlineto
          63 294 rlineto
          841 hlineto
          305 111 rmoveto
          -141 hlineto
          50 237 rlineto
          -140 hlineto
          -50 -237 rlineto
          -842 hlineto
          51 237 rlineto
          -139 hlineto
          -50 -237 rlineto
          -146 hlineto
          -23 -111 rlineto
          145 hlineto
          -233 -1095 rlineto
          138 hlineto
          145 677 rlineto
          841 hlineto
          -144 -677 rlineto
          140 hlineto
          233 1095 rlineto
          142 hlineto
          endchar
        </CharString>
        <CharString name="Hbrevebelow">
          266 1248 hmoveto
          -89 callgsubr
          -815 -131 26 callsubr
        </CharString>
        <CharString name="Hcaron">
          266 1248 hmoveto
          -89 callgsubr
          -152 1577 -80 callsubr
          endchar
        </CharString>
        <CharString name="Hcedilla">
          266 1415 1443 rmoveto
          -136 -642 rlineto
          -842 hlineto
          137 642 rlineto
          -139 hlineto
          -307 -1443 rlineto
          16 hlineto
          -91 -141 -11 -72 52 -1 rlineto
          87 -3 49 -32 -52 vvcurveto
          -53 -48 -34 -72 -48 -67 14 18 -36 vhcurveto
          -18 -87 rlineto
          -23 46 69 -14 56 hhcurveto
          136 97 77 109 89 -63 54 -117 12 hvcurveto
          89 139 rlineto
          12 hlineto
          6 29 1 1 rlineto
          -1 hlineto
          139 647 rlineto
          841 hlineto
          -144 -677 rlineto
          140 hlineto
          307 1443 rlineto
          endchar
        </CharString>
        <CharString name="Hcedilla.mini">
          266 1415 1443 rmoveto
          -136 -642 rlineto
          -842 hlineto
          137 642 rlineto
          -139 hlineto
          -307 -1443 rlineto
          11 hlineto
          -86 -138 -10 -56 61 -2 rlineto
          87 -3 42 -28 -47 vvcurveto
          -47 -46 -26 -72 -39 -46 9 14 -32 vhcurveto
          -17 -80 rlineto
          -16 34 66 -12 38 hhcurveto
          135 90 62 99 91 -61 52 -119 7 hvcurveto
          78 121 rlineto
          24 hlineto
          145 677 rlineto
          841 hlineto
          -144 -677 rlineto
          140 hlineto
          307 1443 rlineto
          endchar
        </CharString>
        <CharString name="Hcircumflex">
          266 1248 hmoveto
          -89 callgsubr
          55 92 callgsubr
          endchar
        </CharString>
        <CharString name="Hdieresis">
          266 1248 hmoveto
          -89 callgsubr
          -247 1568 -105 callgsubr
        </CharString>
        <CharString name="Hdotaccent">
          266 1248 hmoveto
          -89 callgsubr
          -62 1577 -99 callsubr
        </CharString>
        <CharString name="Hdotbelow">
          266 1248 hmoveto
          -89 callgsubr
          -476 21 callsubr
          endchar
        </CharString>
        <CharString name="I">
          -715 -51 callsubr
          endchar
        </CharString>
        <CharString name="I.1">
          -234 1075 1325 rmoveto
          25 118 rlineto
          -286 hlineto
          -139 hlineto
          -286 hlineto
          -25 -118 rlineto
          286 hlineto
          -257 -1207 rlineto
          -286 hlineto
          -25 -118 rlineto
          286 hlineto
          139 hlineto
          286 hlineto
          26 118 rlineto
          -287 hlineto
          257 1207 rlineto
          endchar
        </CharString>
        <CharString name="I.mini">
          114 callsubr
          endchar
        </CharString>
        <CharString name="I.mini.1">
          -234 1047 1195 rmoveto
          25 118 rlineto
          -710 hlineto
          -26 -118 rlineto
          288 hlineto
          -229 -1077 rlineto
          -288 hlineto
          -25 -118 rlineto
          288 hlineto
          136 hlineto
          287 hlineto
          25 118 rlineto
          -287 hlineto
          229 1077 rlineto
          endchar
        </CharString>
        <CharString name="IAcyrillic">
          -59 callsubr
          endchar
        </CharString>
        <CharString name="IJ">
          372 -51 callsubr
          487 -66 callsubr
          endchar
        </CharString>
        <CharString name="IJacute">
          372 -51 callsubr
          487 -66 callsubr
          1254 vmoveto
          -83 callsubr
          1247 hmoveto
          64 callgsubr
        </CharString>
        <CharString name="IUcyrillic">
          833 1288 97 rmoveto
          -250 -182 182 308 425 262 334 343 250 180 -182 -299 -424 -266 -344 -337 hvcurveto
          -841 704 rmoveto
          137 642 rlineto
          -139 hlineto
          -307 -1443 rlineto
          138 hlineto
          145 677 rlineto
          299 hlineto
          -3 -36 -2 -37 -38 vvcurveto
          -371 242 -225 330 432 314 418 498 345 -243 242 -318 -374 -279 -285 -387 -80 vhcurveto
          endchar
        </CharString>
        <CharString name="Iacute">
          -715 -51 callsubr
          488 125 callsubr
          endchar
        </CharString>
        <CharString name="Iacute.1">
          -234 1166 1874 rmoveto
          -175 hlineto
          -373 -297 rlineto
          159 hlineto
          -102 -134 rmoveto
          -286 hlineto
          -25 -118 rlineto
          286 hlineto
          -257 -1207 rlineto
          -286 hlineto
          -25 -118 rlineto
          286 hlineto
          139 hlineto
          286 hlineto
          26 118 rlineto
          -287 hlineto
          257 1207 rlineto
          286 hlineto
          25 118 rlineto
          -286 hlineto
          endchar
        </CharString>
        <CharString name="Ibreve">
          -715 -51 callsubr
          105 1851 -73 callgsubr
          endchar
        </CharString>
        <CharString name="Ibreve.1">
          -234 989 1851 rmoveto
          -106 -21 -84 -68 -115 hhcurveto
          -115 -83 67 92 hvcurveto
          4 0 6 5 vvcurveto
          -116 hlineto
          -3 0 -6 -5 vvcurveto
          -154 125 -106 185 178 138 107 167 26 vhcurveto
          -432 -408 rmoveto
          -286 hlineto
          -25 -118 rlineto
          286 hlineto
          -257 -1207 rlineto
          -286 hlineto
          -25 -118 rlineto
          286 hlineto
          139 hlineto
          286 hlineto
          26 118 rlineto
          -287 hlineto
          257 1207 rlineto
          286 hlineto
          25 118 rlineto
          -286 hlineto
          endchar
        </CharString>
        <CharString name="Icaron">
          -715 -51 callsubr
          338 1577 -80 callsubr
          endchar
        </CharString>
        <CharString name="Icaron.1">
          -234 826 1577 rmoveto
          315 297 rlineto
          -160 hlineto
          -214 -208 rlineto
          -12 hlineto
          -126 208 rlineto
          -143 hlineto
          189 -297 rlineto
          0 -134 rmoveto
          -286 hlineto
          -25 -118 rlineto
          286 hlineto
          -257 -1207 rlineto
          -286 hlineto
          -25 -118 rlineto
          286 hlineto
          139 hlineto
          286 hlineto
          26 118 rlineto
          -287 hlineto
          257 1207 rlineto
          286 hlineto
          25 118 rlineto
          -286 hlineto
          endchar
        </CharString>
        <CharString name="Icircumflex">
          -715 -51 callsubr
          545 92 callgsubr
          endchar
        </CharString>
        <CharString name="Icircumflex.1">
          -234 780 1785 rmoveto
          12 hlineto
          126 -208 rlineto
          143 hlineto
          -189 297 rlineto
          -151 hlineto
          -315 -297 rlineto
          160 hlineto
          509 -252 rmoveto
          25 118 rlineto
          -286 hlineto
          -139 hlineto
          -286 hlineto
          -25 -118 rlineto
          286 hlineto
          -257 -1207 rlineto
          -286 hlineto
          -25 -118 rlineto
          286 hlineto
          139 hlineto
          286 hlineto
          26 118 rlineto
          -287 hlineto
          257 1207 rlineto
          endchar
        </CharString>
        <CharString name="Icyrillic">
          110 callsubr
        </CharString>
        <CharString name="Icyrillic.1">
          -214 1085 1325 rmoveto
          25 118 rlineto
          -286 hlineto
          -139 hlineto
          -286 hlineto
          -25 -118 rlineto
          286 hlineto
          -257 -1207 rlineto
          -286 hlineto
          -25 -118 rlineto
          286 hlineto
          139 hlineto
          286 hlineto
          26 118 rlineto
          -287 hlineto
          257 1207 rlineto
          endchar
        </CharString>
        <CharString name="Idblgrave">
          -715 -51 callsubr
          150 1577 -25 callgsubr
          endchar
        </CharString>
        <CharString name="Idblgrave.1">
          -234 990 1577 rmoveto
          -184 297 rlineto
          -171 hlineto
          200 -297 rlineto
          -208 0 rmoveto
          -184 297 rlineto
          -171 hlineto
          200 -297 rlineto
          603 -252 rmoveto
          25 118 rlineto
          -286 hlineto
          -139 hlineto
          -286 hlineto
          -25 -118 rlineto
          286 hlineto
          -257 -1207 rlineto
          -286 hlineto
          -25 -118 rlineto
          286 hlineto
          139 hlineto
          286 hlineto
          26 118 rlineto
          -287 hlineto
          257 1207 rlineto
          endchar
        </CharString>
        <CharString name="Idieresis">
          -715 -51 callsubr
          243 1568 -105 callgsubr
        </CharString>
        <CharString name="Idieresis.1">
          -234 943 1568 rmoveto
          57 45 45 57 57 -45 45 -57 -56 -46 -45 -57 -57 46 -45 56 hvcurveto
          -363 0 rmoveto
          56 46 45 57 57 -46 45 -56 -57 -45 -45 -57 -57 45 -45 57 hvcurveto
          495 -243 rmoveto
          25 118 rlineto
          -286 hlineto
          -139 hlineto
          -286 hlineto
          -25 -118 rlineto
          286 hlineto
          -257 -1207 rlineto
          -286 hlineto
          -25 -118 rlineto
          286 hlineto
          139 hlineto
          286 hlineto
          26 118 rlineto
          -287 hlineto
          257 1207 rlineto
          endchar
        </CharString>
        <CharString name="Idieresisacute">
          -715 -51 callsubr
          356 47 callgsubr
        </CharString>
        <CharString name="Idieresisacute.1">
          -234 1146 2056 rmoveto
          -175 hlineto
          -272 -217 rlineto
          140 hlineto
          1 -169 rmoveto
          -57 46 -45 57 56 46 45 57 57 -46 45 -56 -57 -46 -45 -57 vhcurveto
          -261 -102 rmoveto
          57 45 45 57 57 -45 45 -57 -56 -46 -45 -57 -57 46 -45 56 hvcurveto
          96 -125 rmoveto
          -286 hlineto
          -25 -118 rlineto
          286 hlineto
          -257 -1207 rlineto
          -286 hlineto
          -25 -118 rlineto
          286 hlineto
          139 hlineto
          286 hlineto
          26 118 rlineto
          -287 hlineto
          257 1207 rlineto
          286 hlineto
          25 118 rlineto
          -286 hlineto
          endchar
        </CharString>
        <CharString name="Idieresisacute.mini">
          114 callsubr
          330 1731 rmoveto
          139 hlineto
          308 217 rlineto
          -176 hlineto
          -381 -479 -69 callsubr
          endchar
        </CharString>
        <CharString name="Idieresisacute.mini.1">
          -234 1126 1926 rmoveto
          -176 hlineto
          -271 -217 rlineto
          139 hlineto
          12 -160 rmoveto
          -57 46 -45 57 56 46 45 57 56 -46 46 -56 -57 -46 -46 -56 vhcurveto
          -261 -102 rmoveto
          56 46 45 57 56 -46 46 -56 -57 -45 -46 -56 -57 45 -45 57 hvcurveto
          -233 -252 rmoveto
          288 hlineto
          -229 -1077 rlineto
          -288 hlineto
          -25 -118 rlineto
          288 hlineto
          136 hlineto
          287 hlineto
          25 118 rlineto
          -287 hlineto
          229 1077 rlineto
          287 hlineto
          25 118 rlineto
          -710 hlineto
          endchar
        </CharString>
        <CharString name="Idotaccent">
          -715 -51 callsubr
          427 1577 -99 callsubr
        </CharString>
        <CharString name="Idotaccent.1">
          -234 777 1577 rmoveto
          58 47 46 58 58 -47 47 -58 -58 -47 -47 -58 -58 47 -46 58 hvcurveto
          298 -252 rmoveto
          25 118 rlineto
          -286 hlineto
          -139 hlineto
          -286 hlineto
          -25 -118 rlineto
          286 hlineto
          -257 -1207 rlineto
          -286 hlineto
          -25 -118 rlineto
          286 hlineto
          139 hlineto
          286 hlineto
          26 118 rlineto
          -287 hlineto
          257 1207 rlineto
          endchar
        </CharString>
        <CharString name="Idotbelow">
          -715 -51 callsubr
          14 21 callsubr
          endchar
        </CharString>
        <CharString name="Idotbelow.1">
          -234 365 -154 rmoveto
          -58 -47 -47 -58 -58 47 -46 58 58 47 46 58 58 -47 47 -58 hvcurveto
          710 1479 rmoveto
          25 118 rlineto
          -286 hlineto
          -139 hlineto
          -286 hlineto
          -25 -118 rlineto
          286 hlineto
          -257 -1207 rlineto
          -286 hlineto
          -25 -118 rlineto
          286 hlineto
          139 hlineto
          286 hlineto
          26 118 rlineto
          -287 hlineto
          257 1207 rlineto
          endchar
        </CharString>
        <CharString name="Iecyrillic">
          -7 1036 -101 callgsubr
          endchar
        </CharString>
        <CharString name="Igrave">
          -715 -51 callsubr
          324 130 callsubr
          endchar
        </CharString>
        <CharString name="Igrave.1">
          -234 844 1577 rmoveto
          -184 297 rlineto
          -157 hlineto
          200 -297 rlineto
          372 -252 rmoveto
          25 118 rlineto
          -286 hlineto
          -139 hlineto
          -286 hlineto
          -25 -118 rlineto
          286 hlineto
          -257 -1207 rlineto
          -286 hlineto
          -25 -118 rlineto
          286 hlineto
          139 hlineto
          286 hlineto
          26 118 rlineto
          -287 hlineto
          257 1207 rlineto
          endchar
        </CharString>
        <CharString name="Ihookabove">
          -715 -51 callsubr
          298 1788 -57 callsubr
          endchar
        </CharString>
        <CharString name="Ihookabove.1">
          -234 745 1537 rmoveto
          116 31 79 84 94 vvcurveto
          90 -79 59 -120 -37 -41 -8 -9 -21 vhcurveto
          -19 -92 rlineto
          8 23 37 6 37 hhcurveto
          67 36 -25 -43 -52 -44 -41 -76 -19 hvcurveto
          372 -295 rmoveto
          25 118 rlineto
          -286 hlineto
          -139 hlineto
          -286 hlineto
          -25 -118 rlineto
          286 hlineto
          -257 -1207 rlineto
          -286 hlineto
          -25 -118 rlineto
          286 hlineto
          139 hlineto
          286 hlineto
          26 118 rlineto
          -287 hlineto
          257 1207 rlineto
          endchar
        </CharString>
        <CharString name="Iicyrillic">
          290 1123 hmoveto
          -52 callgsubr
          endchar
        </CharString>
        <CharString name="Iinvertedbreve">
          -715 -51 callsubr
          763 1577 -49 callgsubr
          endchar
        </CharString>
        <CharString name="Iinvertedbreve.1">
          -234 1078 1577 rmoveto
          3 1 5 5 vvcurveto
          154 -125 107 -186 -178 -138 -108 -166 -26 vhcurveto
          118 hlineto
          105 21 84 68 115 hhcurveto
          115 84 -66 -93 hvcurveto
          -4 -1 -6 -4 vvcurveto
          113 -252 rmoveto
          25 118 rlineto
          -286 hlineto
          -139 hlineto
          -286 hlineto
          -25 -118 rlineto
          286 hlineto
          -257 -1207 rlineto
          -286 hlineto
          -25 -118 rlineto
          286 hlineto
          139 hlineto
          286 hlineto
          26 118 rlineto
          -287 hlineto
          257 1207 rlineto
          endchar
        </CharString>
        <CharString name="Iishortcyrillic">
          290 1123 hmoveto
          -52 callgsubr
          -620 645 rmoveto
          -71 callgsubr
        </CharString>
        <CharString name="Imacron">
          -715 -51 callsubr
          759 1724 -66 callgsubr
        </CharString>
        <CharString name="Imacron.1">
          -234 1095 1724 rmoveto
          -645 hlineto
          -22 -105 rlineto
          644 hlineto
          3 -294 rmoveto
          25 118 rlineto
          -286 hlineto
          -139 hlineto
          -286 hlineto
          -25 -118 rlineto
          286 hlineto
          -257 -1207 rlineto
          -286 hlineto
          -25 -118 rlineto
          286 hlineto
          139 hlineto
          286 hlineto
          26 118 rlineto
          -287 hlineto
          257 1207 rlineto
          endchar
        </CharString>
        <CharString name="Iocyrillic">
          -7 1036 -101 callgsubr
          -263 1568 -105 callgsubr
        </CharString>
        <CharString name="Iogonek">
          -715 144 -416 rmoveto
          25 24 4 5 17 hvcurveto
          87 callgsubr
          -306 -1438 rlineto
          0 vlineto
          -131 -44 -75 -101 -97 vvcurveto
          -104 91 -75 130 vhcurveto
          endchar
        </CharString>
        <CharString name="Iogonek.1">
          -234 364 1325 rmoveto
          286 hlineto
          -257 -1207 rlineto
          -286 hlineto
          -25 -118 rlineto
          498 hlineto
          -3 -12 rlineto
          -118 -44 -77 -83 -100 vvcurveto
          -104 93 -74 129 24 25 3 5 17 vhcurveto
          22 104 rlineto
          -2 -10 -13 -1 -16 hhcurveto
          -84 -52 37 61 86 92 72 145 40 hvcurveto
          39 12 101 callsubr
          -287 hlineto
          257 1207 rlineto
          286 hlineto
          25 118 rlineto
          -711 hlineto
          endchar
        </CharString>
        <CharString name="Iogonek.mini">
          -715 129 5 rmoveto
          -131 -44 -75 -101 -97 vvcurveto
          -104 91 -75 130 25 127 callsubr
          87 callgsubr
          endchar
        </CharString>
        <CharString name="Iogonek.mini.1">
          -234 1075 1325 rmoveto
          25 118 rlineto
          -286 hlineto
          -139 hlineto
          -286 hlineto
          -25 -118 rlineto
          286 hlineto
          -257 -1207 rlineto
          -286 hlineto
          -25 -118 rlineto
          286 hlineto
          139 hlineto
          52 hlineto
          -2 -12 rlineto
          -122 -45 -73 -83 -97 vvcurveto
          -104 91 -75 130 25 24 4 5 17 vhcurveto
          22 103 rlineto
          -2 -9 -13 -1 -17 hhcurveto
          -84 -51 38 60 85 92 76 147 39 hvcurveto
          32 9 rlineto
          25 hlineto
          26 118 rlineto
          -287 hlineto
          257 1207 rlineto
          endchar
        </CharString>
        <CharString name="Iotadieresisgreek">
          -716 -51 callsubr
          243 1568 -105 callgsubr
        </CharString>
        <CharString name="Iotadieresisgreek.1">
          -234 943 1568 rmoveto
          57 45 45 57 57 -45 45 -57 -56 -46 -45 -57 -57 46 -45 56 hvcurveto
          -363 0 rmoveto
          56 46 45 57 57 -46 45 -56 -57 -45 -45 -57 -57 45 -45 57 hvcurveto
          495 -243 rmoveto
          25 118 rlineto
          -286 hlineto
          -139 hlineto
          -286 hlineto
          -25 -118 rlineto
          286 hlineto
          -257 -1207 rlineto
          -286 hlineto
          -25 -118 rlineto
          286 hlineto
          139 hlineto
          286 hlineto
          26 118 rlineto
          -287 hlineto
          257 1207 rlineto
          endchar
        </CharString>
        <CharString name="Iotagreek">
          -715 -51 callsubr
          endchar
        </CharString>
        <CharString name="Iotagreek.1">
          -234 1075 1325 rmoveto
          25 118 rlineto
          -286 hlineto
          -139 hlineto
          -286 hlineto
          -25 -118 rlineto
          286 hlineto
          -257 -1207 rlineto
          -286 hlineto
          -25 -118 rlineto
          286 hlineto
          139 hlineto
          286 hlineto
          26 118 rlineto
          -287 hlineto
          257 1207 rlineto
          endchar
        </CharString>
        <CharString name="Iotatonosgreek">
          -400 583 -43 callgsubr
          -189 1116 32 callsubr
        </CharString>
        <CharString name="Iotatonosgreek.1">
          80 412 1443 rmoveto
          -157 -327 rlineto
          121 hlineto
          195 327 rlineto
          818 -118 rmoveto
          25 118 rlineto
          -286 hlineto
          -139 hlineto
          -286 hlineto
          -25 -118 rlineto
          286 hlineto
          -257 -1207 rlineto
          -286 hlineto
          -25 -118 rlineto
          286 hlineto
          139 hlineto
          286 hlineto
          26 118 rlineto
          -287 hlineto
          257 1207 rlineto
          endchar
        </CharString>
        <CharString name="Itilde">
          -715 -51 callsubr
          573 60 callsubr
          endchar
        </CharString>
        <CharString name="Itilde.1">
          -234 1051 1818 rmoveto
          -95 -19 -41 -47 -61 hhcurveto
          -104 -17 187 -165 hhcurveto
          -119 -97 -90 -157 -20 hvcurveto
          110 hlineto
          94 18 42 48 61 hhcurveto
          103 17 -186 166 hhcurveto
          119 94 87 159 23 hvcurveto
          -486 -375 rmoveto
          -286 hlineto
          -25 -118 rlineto
          286 hlineto
          -257 -1207 rlineto
          -286 hlineto
          -25 -118 rlineto
          286 hlineto
          139 hlineto
          286 hlineto
          26 118 rlineto
          -287 hlineto
          257 1207 rlineto
          286 hlineto
          25 118 rlineto
          -286 hlineto
          endchar
        </CharString>
        <CharString name="Itildebelow">
          -715 -51 callsubr
          152 -417 -103 callsubr
          endchar
        </CharString>
        <CharString name="Itildebelow.1">
          -234 88 -373 rmoveto
          94 18 42 48 61 hhcurveto
          103 17 -186 166 hhcurveto
          119 94 87 159 23 hvcurveto
          -110 hlineto
          -95 -19 -41 -47 -61 hhcurveto
          -104 -17 187 -165 hhcurveto
          -119 -97 -90 -157 -20 hvcurveto
          1097 1698 rmoveto
          25 118 rlineto
          -286 hlineto
          -139 hlineto
          -286 hlineto
          -25 -118 rlineto
          286 hlineto
          -257 -1207 rlineto
          -286 hlineto
          -25 -118 rlineto
          286 hlineto
          139 hlineto
          286 hlineto
          26 118 rlineto
          -287 hlineto
          257 1207 rlineto
          endchar
        </CharString>
        <CharString name="J">
          -132 108 -66 callsubr
          endchar
        </CharString>
        <CharString name="Jcircumflex">
          -132 108 -66 callsubr
          1147 1551 -73 callsubr
          endchar
        </CharString>
        <CharString name="Jecyrillic">
          -126 111 -66 callsubr
          endchar
        </CharString>
        <CharString name="K">
          88 264 -67 callgsubr
          endchar
        </CharString>
        <CharString name="Kacute">
          88 264 -67 callgsubr
          851 125 callsubr
          endchar
        </CharString>
        <CharString name="Kacyrillic">
          98 1452 1443 rmoveto
          -180 hlineto
          -787 -650 rlineto
          -39 hlineto
          138 650 rlineto
          -139 hlineto
          -307 -1443 rlineto
          139 hlineto
          145 684 rlineto
          40 hlineto
          567 -684 rlineto
          160 hlineto
          -605 733 rlineto
          endchar
        </CharString>
        <CharString name="Kappagreek">
          88 264 -67 callgsubr
          endchar
        </CharString>
        <CharString name="Kcaron">
          88 264 -67 callgsubr
          701 1577 -80 callsubr
          endchar
        </CharString>
        <CharString name="Kcommaaccent">
          88 264 -67 callgsubr
          374 -506 -36 callsubr
        </CharString>
        <CharString name="Kcommaaccent.mini">
          88 264 -67 callgsubr
          388 -432 -22 callsubr
        </CharString>
        <CharString name="Kdotbelow">
          88 264 -67 callgsubr
          445 21 callsubr
          endchar
        </CharString>
        <CharString name="Kjecyrillic">
          98 1357 1874 rmoveto
          -175 hlineto
          -373 -297 rlineto
          159 hlineto
          484 -134 rmoveto
          -180 hlineto
          -787 -650 rlineto
          -39 hlineto
          138 650 rlineto
          -139 hlineto
          -307 -1443 rlineto
          139 hlineto
          145 684 rlineto
          40 hlineto
          567 -684 rlineto
          160 hlineto
          -605 733 rlineto
          endchar
        </CharString>
        <CharString name="Klinebelow">
          88 264 -67 callgsubr
          780 -204 -66 callgsubr
        </CharString>
        <CharString name="L">
          -84 1014 124 106 callsubr
        </CharString>
        <CharString name="Lacute">
          -84 1014 124 -32 callsubr
          -373 125 callsubr
          endchar
        </CharString>
        <CharString name="Lambdagreek">
          126 884 1262 rmoveto
          12 hlineto
          176 -1262 rlineto
          135 hlineto
          -217 1443 145 callsubr
          -834 -1443 160 callsubr
          endchar
        </CharString>
        <CharString name="Lcaron">
          -84 821 150 callsubr
          -101 -473 rlineto
          94 hlineto
          137 473 rlineto
          63 -1319 106 callsubr
        </CharString>
        <CharString name="Lcircumflexbelow">
          -84 1014 124 -32 callsubr
          -398 -143 -57 callgsubr
          endchar
        </CharString>
        <CharString name="Lcommaaccent">
          -84 1014 124 -32 callsubr
          -556 -506 -36 callsubr
        </CharString>
        <CharString name="Lcommaaccent.mini">
          -84 1014 124 -32 callsubr
          -542 -432 -22 callsubr
        </CharString>
        <CharString name="Ldotbelow">
          -84 1014 124 -32 callsubr
          -485 21 callsubr
          endchar
        </CharString>
        <CharString name="Ldotbelowmacron">
          -84 1014 124 -32 callsubr
          -485 21 callsubr
          384 2087 -66 callgsubr
        </CharString>
        <CharString name="Ljecyrillic">
          921 491 510 rmoveto
          222 809 rlineto
          567 45 callgsubr
          538 hlineto
          325 221 238 270 238 -183 153 -263 hvcurveto
          -307 hlineto
          115 544 rlineto
          -833 hlineto
          -252 -926 rlineto
          -243 -66 -82 -157 -152 hhcurveto
          -17 -24 3 4 -12 hvcurveto
          -25 -123 rlineto
          -6 14 24 -4 25 hhcurveto
          240 115 187 332 91 hvcurveto
          1119 267 rmoveto
          198 133 -97 -192 -208 -177 -158 -240 78 callsubr
          endchar
        </CharString>
        <CharString name="Llinebelow">
          -84 1014 124 -32 callsubr
          -150 -204 -66 callgsubr
        </CharString>
        <CharString name="Lslash">
          -84 293 124 rmoveto
          143 670 345 152 24 112 -345 -152 114 537 rlineto
          -139 hlineto
          -129 -604 -185 -82 -24 -112 186 82 -155 -727 rlineto
          860 hlineto
          26 124 rlineto
          endchar
        </CharString>
        <CharString name="M">
          539 259 38 callgsubr
        </CharString>
        <CharString name="Macute">
          539 259 -68 callgsubr
          1112 125 callsubr
          endchar
        </CharString>
        <CharString name="Mdotaccent">
          539 259 -68 callgsubr
          1052 1577 -99 callsubr
        </CharString>
        <CharString name="Mdotbelow">
          539 259 -68 callgsubr
          641 21 callsubr
          endchar
        </CharString>
        <CharString name="Mugreek">
          539 259 38 callgsubr
        </CharString>
        <CharString name="N">
          269 -87 callsubr
          endchar
        </CharString>
        <CharString name="Nacute">
          269 -87 callsubr
          986 125 callsubr
          endchar
        </CharString>
        <CharString name="Ncaron">
          269 -87 callsubr
          836 1577 -80 callsubr
          endchar
        </CharString>
        <CharString name="Ncircumflexbelow">
          269 -87 callsubr
          595 -143 -57 callgsubr
          endchar
        </CharString>
        <CharString name="Ncommaaccent">
          269 -87 callsubr
          437 -506 -36 callsubr
        </CharString>
        <CharString name="Ncommaaccent.mini">
          269 -87 callsubr
          451 -432 -22 callsubr
        </CharString>
        <CharString name="Ndotaccent">
          269 -87 callsubr
          926 1577 -99 callsubr
        </CharString>
        <CharString name="Ndotbelow">
          269 -87 callsubr
          508 21 callsubr
          endchar
        </CharString>
        <CharString name="Ngrave">
          269 -87 callsubr
          822 130 callsubr
          endchar
        </CharString>
        <CharString name="Njecyrillic">
          958 1057 hmoveto
          530 hlineto
          318 204 211 239 212 -173 138 -249 hvcurveto
          -320 hlineto
          136 643 rlineto
          -139 hlineto
          -137 -642 rlineto
          -780 hlineto
          105 callsubr
          -139 -91 callsubr
          138 hlineto
          145 677 rlineto
          780 hlineto
          21 -555 rmoveto
          119 556 rlineto
          319 hlineto
          184 123 -84 -160 -179 -151 -133 -242 hvcurveto
          endchar
        </CharString>
        <CharString name="Nlinebelow">
          269 -87 callsubr
          843 -204 -66 callgsubr
        </CharString>
        <CharString name="Ntilde">
          269 -87 callsubr
          1071 60 callsubr
          endchar
        </CharString>
        <CharString name="Nugreek">
          269 -87 callsubr
          endchar
        </CharString>
        <CharString name="NumberSignCyrillic">
          993 264 hmoveto
          259 1220 rlineto
          12 hlineto
          551 -1220 rlineto
          137 160 callgsubr
          -259 -1218 rlineto
          -13 hlineto
          -549 1218 47 callsubr
          2013 538 rmoveto
          23 114 rlineto
          -632 100 callsubr
          651 619 rmoveto
          -154 -99 -113 -135 -114 -74 80 123 153 98 113 134 115 75 -80 -122 vhcurveto
          128 3 rmoveto
          184 -126 122 -186 -211 -155 -160 -217 -184 123 -121 188 210 157 161 215 vhcurveto
          endchar
        </CharString>
        <CharString name="O">
          341 965 1346 -106 callsubr
          endchar
        </CharString>
        <CharString name="O.mini">
          -92 callgsubr
          endchar
        </CharString>
        <CharString name="OE">
          1100 1250 hmoveto
          872 hlineto
          26 124 rlineto
          -733 hlineto
          118 554 rlineto
          696 hlineto
          26 122 rlineto
          -697 hlineto
          112 519 rlineto
          733 hlineto
          26 124 rlineto
          -872 hlineto
          -71 -332 rlineto
          -13 hlineto
          213 -64 -183 149 -251 hhcurveto
          -437 -329 -385 -514 -355 238 -249 337 211 175 96 142 112 hvcurveto
          12 1 rlineto
          109 649 rmoveto
          -435 -261 -326 -348 -266 -176 194 294 431 267 330 346 263 175 -195 -293 vhcurveto
          endchar
        </CharString>
        <CharString name="Oacute">
          341 965 1346 -106 callsubr
          296 1606 rmoveto
          64 callgsubr
        </CharString>
        <CharString name="Obreve">
          341 965 1346 -106 callsubr
          -87 1880 -73 callgsubr
          endchar
        </CharString>
        <CharString name="Ocaron">
          341 965 1346 -106 callsubr
          146 1606 -80 callsubr
          endchar
        </CharString>
        <CharString name="Ocircumflex">
          341 965 1346 -106 callsubr
          353 1903 -73 callsubr
          endchar
        </CharString>
        <CharString name="Ocircumflexacute">
          341 965 1346 -106 callsubr
          176 1830 rmoveto
          -87 callgsubr
          -237 224 rlineto
          51 24 108 callgsubr
          231 rlineto
          -167 hlineto
          endchar
        </CharString>
        <CharString name="Ocircumflexacute.mini">
          -92 callgsubr
          -308 941 rmoveto
          -151 hlineto
          -87 callgsubr
          -186 248 108 callgsubr
          221 129 callgsubr
          endchar
        </CharString>
        <CharString name="Ocircumflexdotbelow">
          341 965 1346 -106 callsubr
          353 1903 -73 callsubr
          -598 -1939 -99 callsubr
        </CharString>
        <CharString name="Ocircumflexgrave">
          341 965 1346 -106 callsubr
          176 1830 rmoveto
          -87 callgsubr
          -237 224 rlineto
          289 24 rmoveto
          -175 231 rlineto
          -165 hlineto
          194 -231 rlineto
          endchar
        </CharString>
        <CharString name="Ocircumflexgrave.mini">
          -92 callgsubr
          -308 941 rmoveto
          -151 hlineto
          -87 callgsubr
          53 248 rmoveto
          -175 221 rlineto
          -166 hlineto
          194 -221 rlineto
          endchar
        </CharString>
        <CharString name="Ocircumflexhookabove">
          341 965 1346 -106 callsubr
          176 1830 rmoveto
          -87 callgsubr
          -237 224 rlineto
          63 136 rmoveto
          9 22 38 5 37 hhcurveto
          67 36 -28 -44 -43 -34 -38 -60 -24 hvcurveto
          60 -71 rlineto
          88 37 63 79 78 vvcurveto
          89 -79 60 -120 -38 -40 -7 -9 -21 vhcurveto
          endchar
        </CharString>
        <CharString name="Ocircumflexhookabove.mini">
          -92 callgsubr
          -308 941 rmoveto
          -151 hlineto
          -87 callgsubr
          -192 363 rmoveto
          9 25 37 6 33 hhcurveto
          65 37 -27 -46 -48 -43 -42 -60 -17 hvcurveto
          65 -67 rlineto
          94 33 57 73 82 vvcurveto
          91 -77 59 -119 -33 -39 -8 -11 -25 vhcurveto
          endchar
        </CharString>
        <CharString name="Ocircumflextilde">
          341 965 1346 -106 callsubr
          376 1874 -34 callgsubr
        </CharString>
        <CharString name="Ocircumflextilde.mini">
          -92 callgsubr
          -308 941 rmoveto
          -151 hlineto
          -87 callgsubr
          -154 268 rmoveto
          100 88 65 126 23 hvcurveto
          -110 hlineto
          -58 -18 -32 -31 -51 -78 123 callsubr
          -88 -66 -126 -23 hvcurveto
          110 hlineto
          58 19 31 32 51 79 50 -102 107 hhcurveto
          endchar
        </CharString>
        <CharString name="Ocyrillic">
          360 975 1346 -106 callsubr
          endchar
        </CharString>
        <CharString name="Odblgrave">
          341 965 1346 -106 callsubr
          -42 1606 -25 callgsubr
          endchar
        </CharString>
        <CharString name="Odieresis">
          341 965 1346 -106 callsubr
          51 1597 -105 callgsubr
        </CharString>
        <CharString name="Odieresismacron">
          341 965 1346 -106 callsubr
          56 1807 -31 callgsubr
        </CharString>
        <CharString name="Odieresismacron.mini">
          -92 callgsubr
          -672 1055 rmoveto
          644 hlineto
          22 101 rlineto
          -645 hlineto
          69 -439 -69 callsubr
          endchar
        </CharString>
        <CharString name="Odotaccent">
          341 965 1346 -106 callsubr
          236 1606 -99 callsubr
        </CharString>
        <CharString name="Odotaccentmacron">
          341 965 1346 -106 callsubr
          235 1607 27 callgsubr
          393 438 rmoveto
          -644 hlineto
          -22 -101 rlineto
          645 hlineto
          endchar
        </CharString>
        <CharString name="Odotaccentmacron.mini">
          -92 callgsubr
          -400 718 27 callgsubr
          372 337 90 callgsubr
          endchar
        </CharString>
        <CharString name="Odotbelow">
          341 965 1346 -106 callsubr
          -56 -333 -99 callsubr
        </CharString>
        <CharString name="Ograve">
          341 965 1346 -106 callsubr
          132 1606 -11 callsubr
          endchar
        </CharString>
        <CharString name="Ohookabove">
          341 965 1346 -106 callsubr
          107 1817 -57 callsubr
          endchar
        </CharString>
        <CharString name="Ohorn">
          -85 callsubr
          endchar
        </CharString>
        <CharString name="Ohornacute">
          -85 callsubr
          -467 707 rmoveto
          64 callgsubr
        </CharString>
        <CharString name="Ohorndotbelow">
          -85 callsubr
          -819 -1232 -99 callsubr
        </CharString>
        <CharString name="Ohorngrave">
          -85 callsubr
          -631 707 -11 callsubr
          endchar
        </CharString>
        <CharString name="Ohornhookabove">
          -85 callsubr
          -656 918 -57 callsubr
          endchar
        </CharString>
        <CharString name="Ohorntilde">
          -85 callsubr
          -382 702 -103 callsubr
          endchar
        </CharString>
        <CharString name="Ohungarumlaut">
          341 965 1346 -106 callsubr
          465 1606 21 callgsubr
        </CharString>
        <CharString name="Oinvertedbreve">
          341 965 1346 -106 callsubr
          571 1606 -49 callgsubr
          endchar
        </CharString>
        <CharString name="Omacron">
          341 965 1346 -106 callsubr
          568 1753 -66 callgsubr
        </CharString>
        <CharString name="Omacronacute">
          341 965 1346 -106 callsubr
          544 1648 17 callsubr
          285 220 rmoveto
          150 hlineto
          284 217 rlineto
          -169 hlineto
          endchar
        </CharString>
        <CharString name="Omacronacute.mini">
          -92 callgsubr
          -91 759 17 callsubr
          279 220 rmoveto
          151 hlineto
          284 115 callsubr
        </CharString>
        <CharString name="Omacrongrave">
          341 965 1346 -106 callsubr
          545 1648 17 callsubr
          455 220 rmoveto
          -177 217 124 callgsubr
          -217 rlineto
          endchar
        </CharString>
        <CharString name="Omacrongrave.mini">
          -92 callgsubr
          -91 759 17 callsubr
          456 220 rmoveto
          -178 207 124 callgsubr
          -207 rlineto
          endchar
        </CharString>
        <CharString name="Omegagreek">
          384 898 12 callgsubr
          endchar
        </CharString>
        <CharString name="Omegatonosgreek">
          629 1143 12 callgsubr
          -923 955 32 callsubr
        </CharString>
        <CharString name="Omicrongreek">
          341 965 1346 -106 callsubr
          endchar
        </CharString>
        <CharString name="Omicrontonosgreek">
          575 1200 1346 -106 callsubr
          -757 1146 32 callsubr
        </CharString>
        <CharString name="Oogonek">
          341 994 -407 rmoveto
          -14 callgsubr
          22 163 callgsubr
          vhcurveto
          409 1265 rmoveto
          -435 -261 -326 -348 -266 -176 195 293 430 266 331 347 263 175 -195 -293 vhcurveto
          endchar
        </CharString>
        <CharString name="Oogonek.mini">
          341 928 -416 rmoveto
          22 163 callgsubr
          hvcurveto
          -14 callgsubr
          vhcurveto
          475 1274 rmoveto
          -435 -261 -326 -348 -266 -176 195 293 430 266 331 347 263 175 -195 -293 vhcurveto
          endchar
        </CharString>
        <CharString name="Oogonekmacron">
          338 994 -407 rmoveto
          -14 callgsubr
          22 163 callgsubr
          vhcurveto
          409 1265 rmoveto
          -435 -261 -326 -348 -266 -176 195 293 430 266 331 347 263 175 -195 -293 vhcurveto
          -51 865 -66 callgsubr
        </CharString>
        <CharString name="Oslash">
          312 1307 1177 rmoveto
          59 -82 33 -109 -128 vvcurveto
          -435 -261 -326 -348 -120 -101 39 70 -75 vhcurveto
          -64 76 rmoveto
          -53 80 -29 103 120 vvcurveto
          430 266 331 347 112 96 -36 -63 74 vhcurveto
          298 210 rmoveto
          -75 55 -135 -160 rlineto
          77 -95 -124 44 -141 hhcurveto
          -438 -328 -386 -513 -160 48 -138 85 -104 hvcurveto
          -154 -183 78 -59 144 172 rlineto
          -84 98 128 -48 148 hhcurveto
          437 326 383 516 168 -53 145 -91 105 hvcurveto
          endchar
        </CharString>
        <CharString name="Oslashacute">
          307 1469 1873 rmoveto
          -175 hlineto
          -373 -297 rlineto
          159 hlineto
          227 -399 rmoveto
          59 -82 33 -109 -128 vvcurveto
          -435 -261 -326 -348 -120 -101 39 70 -75 vhcurveto
          -64 76 rmoveto
          -53 80 -29 103 120 vvcurveto
          430 266 331 347 112 96 -36 -63 74 vhcurveto
          298 210 rmoveto
          -75 55 -135 -160 rlineto
          77 -95 -124 44 -141 hhcurveto
          -438 -328 -386 -513 -160 48 -138 85 -104 hvcurveto
          -154 -183 78 -59 144 172 rlineto
          -84 98 128 -48 148 hhcurveto
          437 326 383 516 168 -53 145 -91 105 hvcurveto
          endchar
        </CharString>
        <CharString name="Otilde">
          341 965 1346 -106 callsubr
          381 1601 -103 callsubr
          endchar
        </CharString>
        <CharString name="Otildeacute">
          341 965 1346 -106 callsubr
          199 1874 rmoveto
          149 hlineto
          276 211 rlineto
          -169 hlineto
          -88 -479 -84 callgsubr
          endchar
        </CharString>
        <CharString name="Otildeacute.mini">
          -92 callgsubr
          -434 985 rmoveto
          148 hlineto
          271 201 rlineto
          -169 hlineto
          -84 -469 -84 callgsubr
          endchar
        </CharString>
        <CharString name="Otildedieresis">
          341 965 1346 -106 callsubr
          367 1606 -84 callgsubr
          -252 481 rmoveto
          -58 -41 -38 -52 -51 41 -38 58 58 42 38 51 52 -42 38 -58 hvcurveto
          364 hmoveto
          -58 -41 -38 -52 -51 41 -38 58 58 41 38 51 52 -41 38 -58 hvcurveto
          endchar
        </CharString>
        <CharString name="Otildedieresis.mini">
          -92 callgsubr
          -522 1008 rmoveto
          57 42 38 52 52 -42 38 -57 -59 -41 -38 -52 -52 41 -38 59 -19 callsubr
          58 42 38 52 52 -42 38 -58 -58 -41 -38 -52 -52 41 -38 58 hvcurveto
          -109 -291 -84 callgsubr
          endchar
        </CharString>
        <CharString name="Otildemacron">
          341 965 1346 -106 callsubr
          629 2045 rmoveto
          136 callsubr
          644 hlineto
          -240 -338 -84 callgsubr
          endchar
        </CharString>
        <CharString name="Otildemacron.mini">
          -92 callgsubr
          -28 1055 90 callgsubr
          404 -338 -84 callgsubr
          endchar
        </CharString>
        <CharString name="P">
          56 437 1443 -62 callsubr
          endchar
        </CharString>
        <CharString name="Pacute">
          54 437 1443 -62 callsubr
          516 911 rmoveto
          64 callgsubr
        </CharString>
        <CharString name="Pdotaccent">
          54 437 1443 -62 callsubr
          456 911 -99 callsubr
        </CharString>
        <CharString name="Pecyrillic">
          266 1237 81 callsubr
        </CharString>
        <CharString name="Phigreek">
          496 721 -58 rmoveto
          139 hlineto
          30 137 rlineto
          499 8 322 314 425 vvcurveto
          309 -197 199 -353 27 vhcurveto
          29 134 rlineto
          -139 hlineto
          -29 -134 rlineto
          -500 -8 -322 -314 -426 vvcurveto
          -308 198 -199 352 -27 vhcurveto
          26 123 rmoveto
          -288 15 -146 161 249 vvcurveto
          351 250 256 403 3 vhcurveto
          -79 -1034 rmoveto
          219 1035 rlineto
          287 -15 148 -161 -248 vvcurveto
          -355 -250 -253 -404 -3 vhcurveto
          endchar
        </CharString>
        <CharString name="Pigreek">
          246 1228 hmoveto
          -44 callgsubr
          -1100 -91 callsubr
          138 hlineto
          281 144 callsubr
          822 45 callgsubr
          endchar
        </CharString>
        <CharString name="Psigreek">
          410 830 hmoveto
          74 345 425 15 192 176 81 381 rlinecurve
          111 526 rlineto
          -139 hlineto
          -111 -521 -61 -288 -153 -160 -319 -3 rlinecurve
          206 972 rlineto
          -139 hlineto
          -206 -972 rlineto
          -231 10 -129 98 193 vvcurveto
          41 5 45 11 50 vhcurveto
          113 535 rlineto
          -139 hlineto
          -114 -539 rlineto
          -9 -47 -5 -44 -42 vvcurveto
          -255 162 -148 308 -23 vhcurveto
          -73 -345 rlineto
          endchar
        </CharString>
        <CharString name="Q">
          347 1278 -169 rmoveto
          -124 241 rlineto
          247 150 154 300 356 vvcurveto
          346 -236 249 -339 -445 -328 -394 -515 -345 238 -249 339 88 84 14 31 80 vhcurveto
          95 -184 rlineto
          -337 266 rmoveto
          -266 -178 192 288 432 267 337 353 265 177 -193 -287 -299 -123 -251 -195 -128 hvcurveto
          -107 207 rlineto
          -149 hlineto
          138 -266 rlineto
          -21 -58 -61 -11 -63 hhcurveto
          endchar
        </CharString>
        <CharString name="R">
          -90 callgsubr
          endchar
        </CharString>
        <CharString name="Racute">
          -90 callgsubr
          511 863 rmoveto
          64 callgsubr
        </CharString>
        <CharString name="Rcaron">
          -90 callgsubr
          361 863 -80 callsubr
          endchar
        </CharString>
        <CharString name="Rcommaaccent">
          -90 callgsubr
          78 -1220 -36 callsubr
        </CharString>
        <CharString name="Rcommaaccent.mini">
          -90 callgsubr
          92 -1146 -22 callsubr
        </CharString>
        <CharString name="Rdblgrave">
          -90 callgsubr
          173 863 -25 callgsubr
          endchar
        </CharString>
        <CharString name="Rdotaccent">
          -90 callgsubr
          451 863 -99 callsubr
        </CharString>
        <CharString name="Rdotbelow">
          -90 callgsubr
          149 -1077 -99 callsubr
        </CharString>
        <CharString name="Rdotbelowmacron">
          -90 callgsubr
          149 -1077 -101 callsubr
          633 2087 -66 callgsubr
        </CharString>
        <CharString name="Rhogreek">
          54 437 1443 -62 callsubr
          endchar
        </CharString>
        <CharString name="Rinvertedbreve">
          -90 callgsubr
          786 863 -49 callgsubr
          endchar
        </CharString>
        <CharString name="Rlinebelow">
          -90 callgsubr
          484 -918 -66 callgsubr
        </CharString>
        <CharString name="S">
          44 126 392 rmoveto
          -102 callgsubr
          endchar
        </CharString>
        <CharString name="S.mini">
          1 callgsubr
          endchar
        </CharString>
        <CharString name="Sacute">
          44 126 392 rmoveto
          -102 callgsubr
          708 1185 rmoveto
          64 callgsubr
        </CharString>
        <CharString name="Sacutedotaccent">
          44 126 392 rmoveto
          -102 callgsubr
          804 1185 -80 callgsubr
          -144 77 -99 callsubr
        </CharString>
        <CharString name="Scaron">
          44 126 392 rmoveto
          -102 callgsubr
          558 1185 -80 callsubr
          endchar
        </CharString>
        <CharString name="Scarondotaccent">
          44 126 392 rmoveto
          -102 callgsubr
          558 1185 30 callgsubr
          385 49 rmoveto
          57 46 46 57 57 -46 88 callsubr
        </CharString>
        <CharString name="Scarondotaccent.mini">
          1 callgsubr
          521 1094 30 callgsubr
          382 39 rmoveto
          57 47 46 57 57 -47 88 callsubr
        </CharString>
        <CharString name="Scedilla">
          44 721 821 rmoveto
          -181 65 -76 82 113 vvcurveto
          155 144 112 198 193 144 -107 -166 31 vhcurveto
          137 hlineto
          232 -20 -207 166 -269 hhcurveto
          -284 -210 -171 -232 -163 107 -128 211 -74 hvcurveto
          136 -48 rlineto
          189 -66 74 -86 -122 vvcurveto
          -173 -148 -115 -220 -218 -163 119 178 -24 vhcurveto
          -139 hlineto
          25 -232 175 -158 254 -28 -75 -115 rcurveline
          -11 -72 52 -1 rlineto
          87 -3 49 -32 -52 vvcurveto
          -53 -48 -34 -72 -48 -67 14 18 -36 vhcurveto
          -18 -87 rlineto
          -23 46 69 -14 56 hhcurveto
          136 97 77 109 89 -63 54 -117 12 hvcurveto
          70 109 rlineto
          294 10 202 172 246 vvcurveto
          169 -102 125 -227 82 vhcurveto
          endchar
        </CharString>
        <CharString name="Scedilla.mini">
          44 721 821 rmoveto
          -181 65 -76 82 113 vvcurveto
          155 144 112 198 193 144 -107 -166 31 vhcurveto
          137 hlineto
          232 -20 -207 166 -269 hhcurveto
          -284 -210 -171 -232 -163 107 -128 211 -74 hvcurveto
          136 -48 rlineto
          189 -66 74 -86 -122 vvcurveto
          -173 -148 -115 -220 -218 -163 119 178 -24 vhcurveto
          -139 hlineto
          25 -231 173 -157 251 -29 -70 -113 rcurveline
          -10 -56 61 -2 rlineto
          87 -3 42 -28 -47 vvcurveto
          -47 -46 -26 -72 -39 -46 9 14 -32 vhcurveto
          -17 -80 rlineto
          -16 34 66 -12 38 hhcurveto
          135 90 62 99 91 -61 52 -119 7 hvcurveto
          59 91 rlineto
          301 6 207 173 249 vvcurveto
          169 -102 125 -227 82 vhcurveto
          endchar
        </CharString>
        <CharString name="Scircumflex">
          44 126 392 rmoveto
          -102 callgsubr
          756 1482 -73 callsubr
          endchar
        </CharString>
        <CharString name="Scommaaccent">
          44 126 392 rmoveto
          -102 callgsubr
          258 -898 -36 callsubr
        </CharString>
        <CharString name="Scommaaccent.mini">
          44 126 392 rmoveto
          -102 callgsubr
          272 -824 -22 callsubr
        </CharString>
        <CharString name="Sdotaccent">
          44 126 392 rmoveto
          -102 callgsubr
          648 1185 -99 callsubr
        </CharString>
        <CharString name="Sdotbelow">
          44 126 392 rmoveto
          -102 callgsubr
          329 -755 -99 callsubr
        </CharString>
        <CharString name="Sdotbelowdotaccent">
          44 126 392 rmoveto
          -102 callgsubr
          329 -755 -101 callsubr
          319 1940 -99 callsubr
        </CharString>
        <CharString name="Shacyrillic">
          714 138 hmoveto
          1548 -24 callgsubr
          -139 45 callgsubr
          -566 94 callgsubr
          -565 126 callsubr
          endchar
        </CharString>
        <CharString name="Shchacyrillic">
          777 1809 -285 rmoveto
          87 409 rlineto
          -183 hlineto
          281 144 callsubr
          -140 45 callgsubr
          -565 94 callgsubr
          -565 hlineto
          281 144 callsubr
          -140 -91 callsubr
          1604 120 callgsubr
          endchar
        </CharString>
        <CharString name="Sigmagreek">
          99 287 130 rmoveto
          520 605 6 24 -260 554 2 6 rlineto
          839 hlineto
          26 124 rlineto
          -1008 hlineto
          -22 -104 277 -587 -565 -653 -20 -99 rlineto
          1045 hlineto
          25 124 rlineto
          -867 hlineto
          endchar
        </CharString>
        <CharString name="Softsigncyrillic">
          60 -53 callsubr
          endchar
        </CharString>
        <CharString name="T">
          52 651 -58 callsubr
          endchar
        </CharString>
        <CharString name="Taugreek">
          57 651 -58 callsubr
          endchar
        </CharString>
        <CharString name="Tbar">
          57 1413 1319 rmoveto
          26 124 rlineto
          -1104 hlineto
          -25 -124 rlineto
          482 hlineto
          -113 -531 rlineto
          -300 hlineto
          -23 -110 rlineto
          299 hlineto
          -144 -678 rlineto
          140 hlineto
          144 678 rlineto
          305 hlineto
          23 110 rlineto
          -305 hlineto
          113 531 rlineto
          endchar
        </CharString>
        <CharString name="Tcaron">
          57 651 -58 callsubr
          343 1577 -80 callsubr
          endchar
        </CharString>
        <CharString name="Tcedilla">
          57 335 1443 rmoveto
          -25 -124 rlineto
          482 hlineto
          -281 -1319 rlineto
          12 hlineto
          -91 -141 -11 -72 52 -1 rlineto
          87 -3 49 -32 -52 vvcurveto
          -53 -48 -34 -72 -48 -67 14 18 -36 vhcurveto
          -18 -87 rlineto
          -23 46 69 -14 56 hhcurveto
          136 97 77 109 89 -63 54 -117 12 hvcurveto
          89 139 rlineto
          18 hlineto
          280 1319 rlineto
          482 hlineto
          26 124 rlineto
          endchar
        </CharString>
        <CharString name="Tcedilla.mini">
          52 335 1443 rmoveto
          -25 -124 rlineto
          482 hlineto
          -281 -1319 rlineto
          11 hlineto
          -86 -138 -10 -56 61 -2 rlineto
          87 -3 42 -28 -47 vvcurveto
          -47 -46 -26 -72 -39 -46 9 14 -32 vhcurveto
          -17 -80 rlineto
          -16 34 66 -12 38 hhcurveto
          135 90 62 99 91 -61 52 -119 7 hvcurveto
          78 121 rlineto
          26 hlineto
          280 1319 rlineto
          482 hlineto
          26 124 rlineto
          endchar
        </CharString>
        <CharString name="Tcircumflexbelow">
          57 651 -58 callsubr
          104 -143 -57 callgsubr
          endchar
        </CharString>
        <CharString name="Tcommaaccent">
          57 651 -58 callsubr
          -54 -506 -36 callsubr
        </CharString>
        <CharString name="Tcommaaccent.mini">
          57 651 -58 callsubr
          -40 -432 -22 callsubr
        </CharString>
        <CharString name="Tdotaccent">
          57 651 -58 callsubr
          433 1577 -99 callsubr
        </CharString>
        <CharString name="Tdotbelow">
          57 651 -58 callsubr
          17 21 callsubr
          endchar
        </CharString>
        <CharString name="Tecyrillic">
          58 654 -58 callsubr
          endchar
        </CharString>
        <CharString name="Thetagreek">
          349 1189 661 rmoveto
          27 124 rlineto
          -639 hlineto
          -27 -124 rlineto
          216 -691 rmoveto
          458 333 377 531 376 -204 219 -363 -461 -322 -386 -529 -365 206 -223 353 hvcurveto
          651 890 rmoveto
          -441 -273 -322 -356 -277 -163 179 301 440 262 329 364 283 160 -176 -310 vhcurveto
          endchar
        </CharString>
        <CharString name="Thorn">
          47 127 hmoveto
          137 hlineto
          75 351 rlineto
          368 hlineto
          333 214 190 279 200 -154 149 -233 hvcurveto
          -355 hlineto
          59 274 128 callsubr
          53 -397 rmoveto
          336 hlineto
          191 98 -100 -139 -203 -152 -131 -257 hvcurveto
          -338 hlineto
          endchar
        </CharString>
        <CharString name="Tlinebelow">
          57 651 -58 callsubr
          352 -204 -66 callgsubr
        </CharString>
        <CharString name="Tsecyrillic">
          326 1358 -285 rmoveto
          87 409 rlineto
          -183 94 callgsubr
          -821 103 callgsubr
        </CharString>
        <CharString name="Tshecyrillic">
          495 1181 766 rmoveto
          206 104 -133 -241 -51 hvcurveto
          -83 -392 rlineto
          139 hlineto
          83 386 rlineto
          311 66 -152 193 -287 hhcurveto
          -163 -130 -71 -76 -89 hvcurveto
          -14 hlineto
          123 576 rlineto
          483 hlineto
          26 124 rlineto
          -1103 hlineto
          -27 -124 rlineto
          482 45 callgsubr
          140 hlineto
          121 568 rlineto
          95 71 156 103 180 hhcurveto
          endchar
        </CharString>
        <CharString name="U">
          -103 callgsubr
          endchar
        </CharString>
        <CharString name="U.mini">
          -74 callgsubr
          endchar
        </CharString>
        <CharString name="Uacute">
          -103 callgsubr
          380 1603 rmoveto
          64 callgsubr
        </CharString>
        <CharString name="Ubreve">
          -103 callgsubr
          -3 1877 -73 callgsubr
          endchar
        </CharString>
        <CharString name="Ucaron">
          -103 callgsubr
          230 1603 -80 callsubr
          endchar
        </CharString>
        <CharString name="Ucircumflex">
          -103 callgsubr
          437 1900 -73 callsubr
          endchar
        </CharString>
        <CharString name="Ucircumflexbelow">
          -103 callgsubr
          6 -117 -57 callgsubr
          endchar
        </CharString>
        <CharString name="Ucyrillic">
          -69 callgsubr
          endchar
        </CharString>
        <CharString name="Udblgrave">
          -103 callgsubr
          42 1603 -25 callgsubr
          endchar
        </CharString>
        <CharString name="Udieresis">
          -103 callgsubr
          135 1594 -105 callgsubr
        </CharString>
        <CharString name="Udieresisacute">
          -103 callgsubr
          248 1865 12 callsubr
          endchar
        </CharString>
        <CharString name="Udieresisacute.mini">
          -74 callgsubr
          408 396 rmoveto
          139 hlineto
          308 217 rlineto
          -176 hlineto
          -381 -479 -69 callsubr
          endchar
        </CharString>
        <CharString name="Udieresisbelow">
          -103 callgsubr
          -269 -366 28 callgsubr
        </CharString>
        <CharString name="Udieresiscaron">
          -103 callgsubr
          284 1858 36 callsubr
        </CharString>
        <CharString name="Udieresiscaron.mini">
          -74 callgsubr
          298 134 -69 callsubr
          -216 255 rmoveto
          150 hlineto
          331 224 108 callsubr
          -212 -146 rlineto
          -12 hlineto
          -150 146 rlineto
          -164 hlineto
          endchar
        </CharString>
        <CharString name="Udieresisgrave">
          -103 callgsubr
          406 1865 rmoveto
          -184 217 rlineto
          -173 hlineto
          221 -217 rlineto
          -126 -271 -105 callgsubr
        </CharString>
        <CharString name="Udieresisgrave.mini">
          -74 callgsubr
          565 396 rmoveto
          -184 217 rlineto
          -174 hlineto
          221 -217 rlineto
          -130 -262 -69 callsubr
          endchar
        </CharString>
        <CharString name="Udieresismacron">
          -103 callgsubr
          140 1804 -31 callgsubr
        </CharString>
        <CharString name="Udieresismacron.mini">
          -74 callgsubr
          208 472 rmoveto
          644 hlineto
          22 101 rlineto
          -645 hlineto
          69 -439 -69 callsubr
          endchar
        </CharString>
        <CharString name="Udotbelow">
          -103 callgsubr
          -81 -337 -99 callsubr
        </CharString>
        <CharString name="Ugrave">
          -103 callgsubr
          216 1603 -11 callsubr
          endchar
        </CharString>
        <CharString name="Uhookabove">
          -103 callgsubr
          190 1814 -57 callsubr
          endchar
        </CharString>
        <CharString name="Uhorn">
          419 731 -26 -78 callsubr
        </CharString>
        <CharString name="Uhornacute">
          419 1111 125 callsubr
          -221 -1603 -78 callsubr
        </CharString>
        <CharString name="Uhorndotbelow">
          419 650 21 callsubr
          81 337 -78 callsubr
        </CharString>
        <CharString name="Uhorngrave">
          419 947 130 callsubr
          -16 -1900 -78 callsubr
        </CharString>
        <CharString name="Uhornhookabove">
          419 921 1788 -57 callsubr
          -209 -1906 -78 callsubr
        </CharString>
        <CharString name="Uhorntilde">
          419 1196 60 callsubr
          -465 -1598 -78 callsubr
        </CharString>
        <CharString name="Uhungarumlaut">
          -103 callgsubr
          548 1603 21 callgsubr
        </CharString>
        <CharString name="Uinvertedbreve">
          -103 callgsubr
          655 1603 -49 callgsubr
          endchar
        </CharString>
        <CharString name="Umacron">
          -103 callgsubr
          651 1750 -66 callgsubr
        </CharString>
        <CharString name="Umacrondieresis">
          -103 callgsubr
          628 1645 17 callsubr
          209 234 10 callgsubr
          endchar
        </CharString>
        <CharString name="Umacrondieresis.mini">
          -74 callgsubr
          145 176 57 callsubr
        </CharString>
        <CharString name="Uogonek">
          276 949 -407 rmoveto
          5 callsubr
          23 24 4 5 19 vhcurveto
          endchar
        </CharString>
        <CharString name="Uogonek.mini">
          276 883 -416 rmoveto
          23 24 4 5 19 hvcurveto
          5 callsubr
          vhcurveto
          endchar
        </CharString>
        <CharString name="Upsilondieresisgreek">
          -76 callgsubr
          241 1568 -105 callgsubr
        </CharString>
        <CharString name="Upsilongreek">
          -76 callgsubr
          endchar
        </CharString>
        <CharString name="Upsilontonosgreek">
          413 989 hmoveto
          -75 callgsubr
          -595 1116 32 callsubr
        </CharString>
        <CharString name="Uring">
          -103 callgsubr
          339 1589 -86 callsubr
        </CharString>
        <CharString name="Ushortcyrillic">
          -69 callgsubr
          384 1861 rmoveto
          -71 callgsubr
        </CharString>
        <CharString name="Utilde">
          -103 callgsubr
          465 1598 -103 callsubr
          endchar
        </CharString>
        <CharString name="Utildeacute">
          -103 callgsubr
          283 1871 rmoveto
          149 hlineto
          276 211 rlineto
          -169 hlineto
          -88 -479 -84 callgsubr
          endchar
        </CharString>
        <CharString name="Utildeacute.mini">
          -74 callgsubr
          446 402 rmoveto
          148 hlineto
          271 201 rlineto
          -169 hlineto
          -84 -469 -84 callgsubr
          endchar
        </CharString>
        <CharString name="Utildebelow">
          -103 callgsubr
          57 -391 -103 callsubr
          endchar
        </CharString>
        <CharString name="V">
          35 callsubr
          endchar
        </CharString>
        <CharString name="Vdotbelow">
          35 callsubr
          14 21 callsubr
          endchar
        </CharString>
        <CharString name="Vecyrillic">
          120 710 -78 callgsubr
          endchar
        </CharString>
        <CharString name="Vtilde">
          35 callsubr
          566 60 callsubr
          endchar
        </CharString>
        <CharString name="W">
          735 1169 -70 callgsubr
          endchar
        </CharString>
        <CharString name="Wacute">
          735 1169 -70 callgsubr
          770 125 callsubr
          endchar
        </CharString>
        <CharString name="Wcircumflex">
          735 1169 -70 callgsubr
          827 92 callgsubr
          endchar
        </CharString>
        <CharString name="Wdieresis">
          735 1169 -70 callgsubr
          525 1568 -105 callgsubr
        </CharString>
        <CharString name="Wdotaccent">
          735 1169 -70 callgsubr
          710 1577 -99 callsubr
        </CharString>
        <CharString name="Wdotbelow">
          735 1169 -70 callgsubr
          293 21 callsubr
          endchar
        </CharString>
        <CharString name="Wgrave">
          735 1169 -70 callgsubr
          606 130 callsubr
          endchar
        </CharString>
        <CharString name="X">
          144 39 58 callgsubr
        </CharString>
        <CharString name="Xacyrillic">
          151 42 58 callgsubr
        </CharString>
        <CharString name="Xdieresis">
          144 39 hmoveto
          -49 callsubr
          98 824 -105 callgsubr
        </CharString>
        <CharString name="Xdotaccent">
          144 39 hmoveto
          -49 callsubr
          283 833 -99 callsubr
        </CharString>
        <CharString name="Xigreek">
          100 390 150 callsubr
          -27 -128 rlineto
          1042 hlineto
          27 128 rlineto
          -241 -768 rmoveto
          28 127 rlineto
          -887 hlineto
          -28 -127 rlineto
          -193 -547 rmoveto
          -27 -128 rlineto
          1042 hlineto
          27 128 rlineto
          endchar
        </CharString>
        <CharString name="Y">
          -76 callgsubr
          endchar
        </CharString>
        <CharString name="Yacute">
          -76 callgsubr
          486 125 callsubr
          endchar
        </CharString>
        <CharString name="Ycircumflex">
          -76 callgsubr
          543 92 callgsubr
          endchar
        </CharString>
        <CharString name="Ydieresis">
          -76 callgsubr
          241 1568 -105 callgsubr
        </CharString>
        <CharString name="Ydotaccent">
          -76 callgsubr
          426 1577 -99 callsubr
        </CharString>
        <CharString name="Ydotbelow">
          -76 callgsubr
          14 21 callsubr
          endchar
        </CharString>
        <CharString name="Yericyrillic">
          -42 callsubr
          endchar
        </CharString>
        <CharString name="Ygrave">
          -76 callgsubr
          322 130 callsubr
          endchar
        </CharString>
        <CharString name="Yhookabove">
          -76 callgsubr
          297 1788 -57 callsubr
          endchar
        </CharString>
        <CharString name="Yicyrillic">
          -708 270 -43 callgsubr
          243 1568 -105 callgsubr
        </CharString>
        <CharString name="Yicyrillic.1">
          -214 953 1568 rmoveto
          57 45 45 57 57 -45 45 -57 -56 -46 -45 -57 -57 46 -45 56 hvcurveto
          -363 0 rmoveto
          56 46 45 57 57 -46 45 -56 -57 -45 -45 -57 -57 45 -45 57 hvcurveto
          495 -243 rmoveto
          25 118 rlineto
          -286 hlineto
          -139 hlineto
          -286 hlineto
          -25 -118 rlineto
          286 hlineto
          -257 -1207 rlineto
          -286 hlineto
          -25 -118 rlineto
          286 hlineto
          139 hlineto
          286 hlineto
          26 118 rlineto
          -287 hlineto
          257 1207 rlineto
          endchar
        </CharString>
        <CharString name="Ymacron">
          -76 callgsubr
          758 1724 -66 callgsubr
        </CharString>
        <CharString name="Ytilde">
          -76 callgsubr
          571 60 callsubr
          endchar
        </CharString>
        <CharString name="Z">
          105 82 hmoveto
          -56 callsubr
          endchar
        </CharString>
        <CharString name="Zacute">
          105 82 hmoveto
          -56 callsubr
          918 1478 rmoveto
          64 callgsubr
        </CharString>
        <CharString name="Zcaron">
          105 82 hmoveto
          -56 callsubr
          768 1478 -80 callsubr
          endchar
        </CharString>
        <CharString name="Zcircumflex">
          105 82 hmoveto
          -56 callsubr
          975 1775 -73 callsubr
          endchar
        </CharString>
        <CharString name="Zdotaccent">
          105 82 hmoveto
          -56 callsubr
          858 1478 -99 callsubr
        </CharString>
        <CharString name="Zdotbelow">
          105 82 hmoveto
          -56 callsubr
          443 -462 -99 callsubr
        </CharString>
        <CharString name="Zecyrillic">
          -64 callsubr
          endchar
        </CharString>
        <CharString name="Zetagreek">
          105 82 hmoveto
          -56 callsubr
          endchar
        </CharString>
        <CharString name="Zhecyrillic">
          781 991 -37 callsubr
          endchar
        </CharString>
        <CharString name="Zlinebelow">
          105 82 hmoveto
          -56 callsubr
          778 -303 -66 callgsubr
        </CharString>
        <CharString name="a">
          -97 485 -107 callgsubr
          endchar
        </CharString>
        <CharString name="a.1">
          34 589 101 -106 callgsubr
          endchar
        </CharString>
        <CharString name="aacute">
          -97 485 -107 callgsubr
          365 1285 -74 callsubr
          endchar
        </CharString>
        <CharString name="aacute.1">
          32 589 101 -106 callgsubr
          -54 1267 -74 callsubr
          endchar
        </CharString>
        <CharString name="abreve">
          -97 485 -107 callgsubr
          2 1556 -63 callgsubr
        </CharString>
        <CharString name="abreve.1">
          32 589 101 -106 callgsubr
          -387 15 callgsubr
        </CharString>
        <CharString name="abreveacute">
          -97 485 -107 callgsubr
          251 1560 -6 callgsubr
        </CharString>
        <CharString name="abreveacute.1">
          32 589 101 -106 callgsubr
          -138 1542 -6 callgsubr
        </CharString>
        <CharString name="abrevedotbelow">
          -97 485 -107 callgsubr
          2 1556 -82 callsubr
          -105 -1901 -99 callsubr
        </CharString>
        <CharString name="abrevedotbelow.1">
          32 589 101 -106 callgsubr
          -387 1538 -82 callsubr
          -173 -1901 -99 callsubr
        </CharString>
        <CharString name="abrevegrave">
          -97 485 -107 callgsubr
          407 1560 -8 callsubr
        </CharString>
        <CharString name="abrevegrave.1">
          32 589 101 -106 callgsubr
          38 1542 -8 callsubr
        </CharString>
        <CharString name="abrevehookabove">
          -97 485 -107 callgsubr
          196 1759 -25 callsubr
        </CharString>
        <CharString name="abrevehookabove.1">
          32 589 101 -106 callgsubr
          -193 1741 -25 callsubr
        </CharString>
        <CharString name="abrevetilde">
          -97 485 -107 callgsubr
          648 1524 -28 callgsubr
        </CharString>
        <CharString name="abrevetilde.1">
          32 589 101 -106 callgsubr
          259 1506 -28 callgsubr
        </CharString>
        <CharString name="acaron">
          -97 485 -107 callgsubr
          376 1246 -76 callsubr
        </CharString>
        <CharString name="acaron.1">
          32 589 101 -106 callgsubr
          7 1228 -76 callsubr
        </CharString>
        <CharString name="acircumflex">
          -97 485 -107 callgsubr
          427 91 callsubr
          endchar
        </CharString>
        <CharString name="acircumflex.1">
          32 589 101 -106 callgsubr
          78 1560 -47 callgsubr
        </CharString>
        <CharString name="acircumflexacute">
          -97 485 -107 callgsubr
          430 1552 -33 callsubr
          -84 311 rmoveto
          -16 callgsubr
          292 296 163 callsubr
          endchar
        </CharString>
        <CharString name="acircumflexacute.1">
          32 589 101 -106 callgsubr
          61 1534 -33 callsubr
          -84 311 rmoveto
          -16 callgsubr
          292 296 163 callsubr
          endchar
        </CharString>
        <CharString name="acircumflexdotbelow">
          -97 485 -107 callgsubr
          427 91 callsubr
          -597 -1591 -99 callsubr
        </CharString>
        <CharString name="acircumflexdotbelow.1">
          32 589 101 -106 callgsubr
          58 1560 -72 callgsubr
          -659 -1591 -99 callsubr
        </CharString>
        <CharString name="acircumflexgrave">
          -97 485 -107 callgsubr
          765 1557 -23 callsubr
        </CharString>
        <CharString name="acircumflexgrave.1">
          32 589 101 -106 callgsubr
          396 1539 -23 callsubr
        </CharString>
        <CharString name="acircumflexhookabove">
          -97 485 -107 callgsubr
          471 1742 -44 callsubr
        </CharString>
        <CharString name="acircumflexhookabove.1">
          32 589 101 -106 callgsubr
          102 1724 -44 callsubr
        </CharString>
        <CharString name="acircumflextilde">
          -97 485 -107 callgsubr
          429 1549 -52 callsubr
        </CharString>
        <CharString name="acircumflextilde.1">
          32 589 101 -106 callgsubr
          60 1531 -52 callsubr
        </CharString>
        <CharString name="acute">
          -223 653 1267 -74 callsubr
          endchar
        </CharString>
        <CharString name="acutecmb">
          280 1267 -74 callsubr
          endchar
        </CharString>
        <CharString name="acutecmb.short">
          361 125 callsubr
          endchar
        </CharString>
        <CharString name="acutedotaccentcmb">
          386 1243 -74 callsubr
          -158 41 -65 callsubr
        </CharString>
        <CharString name="acutedotaccentcmb.short">
          457 125 callsubr
          -144 77 -99 callsubr
        </CharString>
        <CharString name="acyrillic">
          -77 495 -107 callgsubr
          endchar
        </CharString>
        <CharString name="acyrillic.1">
          49 604 101 -106 callgsubr
          endchar
        </CharString>
        <CharString name="adblgrave">
          -97 485 -107 callgsubr
          174 1285 -35 callgsubr
        </CharString>
        <CharString name="adblgrave.1">
          32 589 101 -106 callgsubr
          -195 1267 -35 callgsubr
        </CharString>
        <CharString name="adieresis">
          -97 485 -107 callgsubr
          129 1246 -105 callgsubr
        </CharString>
        <CharString name="adieresis.1">
          32 589 101 -106 callgsubr
          -240 1228 -105 callgsubr
        </CharString>
        <CharString name="adieresismacron">
          -97 485 -107 callgsubr
          130 1258 -41 callgsubr
        </CharString>
        <CharString name="adieresismacron.1">
          32 589 101 -106 callgsubr
          -239 1240 -41 callgsubr
        </CharString>
        <CharString name="adotaccent">
          -97 485 -107 callgsubr
          324 1298 -65 callsubr
        </CharString>
        <CharString name="adotaccent.1">
          32 589 101 -106 callgsubr
          -62 1280 -65 callsubr
        </CharString>
        <CharString name="adotbelow">
          -97 485 -107 callgsubr
          2 -345 -99 callsubr
        </CharString>
        <CharString name="adotbelow.1">
          32 589 101 -106 callgsubr
          -413 21 callsubr
          endchar
        </CharString>
        <CharString name="adotmacron">
          -97 485 -107 callgsubr
          308 1246 17 callgsubr
        </CharString>
        <CharString name="adotmacron.1">
          32 589 101 -106 callgsubr
          -61 1228 17 callgsubr
        </CharString>
        <CharString name="ae">
          675 1307 -86 callgsubr
          endchar
        </CharString>
        <CharString name="aeacute">
          681 1307 -86 callgsubr
          707 1170 -74 callsubr
          endchar
        </CharString>
        <CharString name="aemacron">
          681 1307 -86 callgsubr
          991 1301 -67 callsubr
        </CharString>
        <CharString name="agrave">
          -97 485 -107 callgsubr
          353 1285 -26 callsubr
        </CharString>
        <CharString name="agrave.1">
          32 589 100 -106 callgsubr
          -6 1267 -26 callsubr
        </CharString>
        <CharString name="ahookabove">
          -97 485 -107 callgsubr
          188 1472 -56 callgsubr
          endchar
        </CharString>
        <CharString name="ahookabove.1">
          32 589 101 -106 callgsubr
          -230 1464 -56 callgsubr
          endchar
        </CharString>
        <CharString name="ainvertedbreve">
          -97 485 -107 callgsubr
          641 1246 -55 callsubr
        </CharString>
        <CharString name="ainvertedbreve.1">
          32 589 101 -106 callgsubr
          272 1228 -55 callsubr
        </CharString>
        <CharString name="alphagreek">
          -5 callgsubr
          endchar
        </CharString>
        <CharString name="alphatonosgreek">
          -5 callgsubr
          123 1151 32 callgsubr
        </CharString>
        <CharString name="amacron">
          -97 485 -107 callgsubr
          649 1416 -67 callsubr
        </CharString>
        <CharString name="amacron.1">
          32 589 101 -106 callgsubr
          280 1398 -67 callsubr
        </CharString>
        <CharString name="ampersand">
          249 583 1129 rmoveto
          127 115 104 138 124 86 -70 -109 -117 -102 -120 -240 -80 vhcurveto
          -87 121 -34 74 70 vvcurveto
          16 -1037 rmoveto
          -203 -133 121 160 135 101 114 195 75 hvcurveto
          82 33 342 -508 rlineto
          -90 -113 -144 -40 -127 hhcurveto
          532 -92 rmoveto
          161 hlineto
          -141 209 118 125 87 166 22 190 rlinecurve
          9 71 145 callsubr
          -9 -65 -17 -151 -64 -134 -88 -99 rlinecurve
          -318 464 rlineto
          291 103 123 149 167 vvcurveto
          159 -140 117 -194 -222 -169 -153 -187 -86 38 -90 91 -132 vhcurveto
          -84 -34 rlineto
          -251 -100 -120 -142 -186 vvcurveto
          -217 208 -168 260 170 158 53 95 126 vhcurveto
          endchar
        </CharString>
        <CharString name="anoteleia">
          -614 452 850 rmoveto
          33 callsubr
          endchar
        </CharString>
        <CharString name="aogonek">
          -23 callgsubr
        </CharString>
        <CharString name="aogonek.1">
          73 callsubr
          347 -508 rmoveto
          44 callgsubr
          -82 -53 37 61 89 99 67 136 44 hvcurveto
          6 2 230 1084 -18 callgsubr
          -54 -247 rlineto
          -12 hlineto
          151 -31 -132 114 -190 hhcurveto
          -292 -254 -278 -392 -280 171 -163 229 -45 callgsubr
          -39 -188 rlineto
          -158 -50 -94 -87 50 callgsubr
          endchar
        </CharString>
        <CharString name="aogonek.mini">
          -23 callgsubr
        </CharString>
        <CharString name="aogonek.mini.1">
          73 callsubr
          -33 -119 rmoveto
          -45 callgsubr
          -39 -188 rlineto
          -158 -50 -94 -87 50 callgsubr
          44 callgsubr
          -82 -53 37 61 89 99 67 136 44 hvcurveto
          6 2 230 1084 -18 callgsubr
          -54 -247 rlineto
          -12 hlineto
          151 -31 -132 114 -190 hhcurveto
          -292 -254 -278 -392 -280 171 -163 229 hvcurveto
          endchar
        </CharString>
        <CharString name="approxequal">
          98 911 545 5 callgsubr
        </CharString>
        <CharString name="approxequal.uc">
          98 959 676 5 callgsubr
        </CharString>
        <CharString name="aring">
          -97 485 -107 callgsubr
          334 1246 -86 callsubr
        </CharString>
        <CharString name="aring.1">
          32 589 101 -106 callgsubr
          -35 1228 -86 callsubr
        </CharString>
        <CharString name="aringacute">
          -97 485 -107 callgsubr
          265 1687 8 callgsubr
        </CharString>
        <CharString name="aringacute.1">
          32 589 101 -106 callgsubr
          -104 1669 8 callgsubr
        </CharString>
        <CharString name="aringbelow">
          -97 485 -107 callgsubr
          18 -531 -86 callsubr
        </CharString>
        <CharString name="aringbelow.1">
          32 589 101 -106 callgsubr
          -341 -549 -86 callsubr
        </CharString>
        <CharString name="aringbelow.mini">
          -97 485 -107 callgsubr
          31 -164 8 callsubr
        </CharString>
        <CharString name="aringbelow.mini.1">
          32 589 101 -106 callgsubr
          -414 -182 8 callsubr
        </CharString>
        <CharString name="asciicircum">
          -276 690 1305 rmoveto
          11 hlineto
          127 -511 68 callsubr
          -165 625 rlineto
          -140 hlineto
          -431 -625 rlineto
          128 hlineto
          endchar
        </CharString>
        <CharString name="asciitilde">
          -19 769 526 rmoveto
          143 118 114 197 25 162 callgsubr
          -120 -21 -51 -67 -82 -119 -51 231 -187 hhcurveto
          -144 -120 -117 -195 -23 hvcurveto
          130 hlineto
          119 20 51 69 82 119 50 -231 190 hhcurveto
          endchar
        </CharString>
        <CharString name="asterisk">
          -186 941 817 rmoveto
          69 85 -238 167 295 118 -32 93 -290 -139 72 304 -102 8 -50 -305 -224 187 -70 -84 239 -167 -296 -117 33 -94 290 138 -72 -303 102 -8 49 303 rlineto
          endchar
        </CharString>
        <CharString name="asterisk.uc">
          98 1136 329 rmoveto
          79 105 -374 258 455 173 -46 122 -437 -211 102 464 -129 14 -65 -471 -350 293 -81 -104 376 -259 -452 -171 46 -121 436 211 -102 -465 131 -14 61 470 rlineto
          endchar
        </CharString>
        <CharString name="at">
          648 1155 1436 -26 callgsubr
        </CharString>
        <CharString name="at.uc">
          656 1127 1555 -26 callgsubr
        </CharString>
        <CharString name="atilde">
          -97 485 -107 callgsubr
          471 1234 -103 callsubr
          endchar
        </CharString>
        <CharString name="atilde.1">
          32 589 101 -106 callgsubr
          102 1216 -103 callsubr
          endchar
        </CharString>
        <CharString name="austral">
          98 1060 hmoveto
          136 hlineto
          -65 427 rlineto
          122 hlineto
          22 105 101 callgsubr
          -30 189 rlineto
          229 hlineto
          22 106 rlineto
          -266 hlineto
          -94 616 -34 callsubr
          -356 -616 rlineto
          -266 hlineto
          -23 -106 rlineto
          228 hlineto
          -109 -189 138 callgsubr
          -23 -105 rlineto
          121 hlineto
          -247 -427 rlineto
          150 hlineto
          241 427 rlineto
          598 hlineto
          -128 837 rmoveto
          13 hlineto
          63 -444 rlineto
          -327 hlineto
          366 -288 rmoveto
          -527 hlineto
          110 196 rlineto
          390 hlineto
          endchar
        </CharString>
        <CharString name="b">
          34 -50 callgsubr
          endchar
        </CharString>
        <CharString name="backslash">
          -504 401 -304 139 callgsubr
        </CharString>
        <CharString name="backslash.uc">
          -504 430 -165 139 callgsubr
        </CharString>
        <CharString name="baht">
          98 615 121 rmoveto
          121 567 rlineto
          197 -6 101 -90 -152 vvcurveto
          -178 -162 -141 -229 vhcurveto
          -363 0 rmoveto
          120 567 rlineto
          232 hlineto
          -121 -567 rlineto
          24 1201 rmoveto
          231 hlineto
          -109 -515 rlineto
          -231 hlineto
          444 513 rmoveto
          158 -15 77 -78 -123 vvcurveto
          -168 -136 -118 -208 -10 vhcurveto
          154 -52 rmoveto
          198 35 134 148 193 vvcurveto
          175 -135 123 -216 12 vhcurveto
          33 157 rlineto
          -104 hlineto
          -33 -156 rlineto
          -370 hlineto
          -307 -1443 rlineto
          370 hlineto
          -32 -153 rlineto
          104 hlineto
          32 153 rlineto
          57 hlineto
          318 214 194 257 155 -109 109 -157 28 hvcurveto
          endchar
        </CharString>
        <CharString name="bar">
          -504 295 -304 122 callsubr
        </CharString>
        <CharString name="bar.uc">
          -504 324 -165 122 callsubr
        </CharString>
        <CharString name="bdotaccent">
          33 -50 callgsubr
          -98 1539 -99 callsubr
        </CharString>
        <CharString name="bdotbelow">
          33 -50 callgsubr
          -112 -464 -99 callsubr
        </CharString>
        <CharString name="becyrillic">
          16 749 1064 rmoveto
          -166 -125 -80 -119 -80 hvcurveto
          -13 hlineto
          92 279 114 175 299 8 rrcurveto
          23 115 6 2 17 hvcurveto
          166 8 65 41 10 4 25 117 rcurveline
          -11 -4 -99 -37 -137 -8 rrcurveto
          -1 -18 -112 -5 -22 hhcurveto
          -394 -12 -145 -235 -111 -391 rrcurveto
          -35 -121 -32 -134 -128 vvcurveto
          -266 174 -181 260 358 207 292 346 258 -166 186 -259 vhcurveto
          -124 -963 rmoveto
          -195 -121 127 209 283 165 225 252 192 116 -132 -222 -274 -183 -216 -226 hvcurveto
          endchar
        </CharString>
        <CharString name="betagreek">
          23 329 1058 rmoveto
          -301 -1415 rlineto
          132 hlineto
          128 601 rlineto
          12 hlineto
          -167 46 137 -95 200 hhcurveto
          288 213 210 281 174 -93 112 -173 54 hvcurveto
          2 13 rlineto
          176 55 98 132 181 vvcurveto
          200 -154 130 -228 -274 -143 -152 -314 -66 vhcurveto
          262 -304 rmoveto
          118 hlineto
          213 125 -110 -183 -207 -157 -153 -212 -204 -139 126 194 29 6 44 10 49 hvcurveto
          107 503 rlineto
          246 53 113 113 177 hhcurveto
          174 85 -91 -142 -177 -137 -123 -201 hvcurveto
          -105 hlineto
          endchar
        </CharString>
        <CharString name="bitcoin">
          98 316 146 rmoveto
          117 543 rlineto
          271 hlineto
          201 104 -87 -151 -171 -155 -134 -221 hvcurveto
          -72 1152 rmoveto
          236 hlineto
          188 92 -78 -132 -168 -142 -116 -217 hvcurveto
          -261 hlineto
          437 -49 rmoveto
          191 34 128 142 184 vvcurveto
          139 -88 105 -147 39 vhcurveto
          44 209 rlineto
          -105 hlineto
          -41 -194 rlineto
          1 -11 -11 0 -11 hhcurveto
          -131 hlineto
          41 193 rlineto
          -104 hlineto
          -42 -193 rlineto
          -154 hlineto
          -295 -1385 rlineto
          155 hlineto
          -42 -194 rlineto
          105 hlineto
          42 194 rlineto
          164 hlineto
          -42 -194 rlineto
          105 hlineto
          42 196 rlineto
          276 19 184 179 233 vvcurveto
          149 -105 104 -151 27 vhcurveto
          endchar
        </CharString>
        <CharString name="blinebelow">
          33 -50 callgsubr
          223 -305 -66 callgsubr
        </CharString>
        <CharString name="braceleft">
          -472 315 306 -2 callgsubr
        </CharString>
        <CharString name="braceleft.uc">
          -472 344 445 -2 callgsubr
        </CharString>
        <CharString name="braceright">
          -472 578 896 -2 callsubr
        </CharString>
        <CharString name="braceright.uc">
          -472 608 1035 -2 callsubr
        </CharString>
        <CharString name="bracketleft">
          -472 511 1506 93 callgsubr
        </CharString>
        <CharString name="bracketleft.uc">
          -472 540 1644 93 callgsubr
        </CharString>
        <CharString name="bracketright">
          -472 385 -300 93 callsubr
        </CharString>
        <CharString name="bracketright.uc">
          -472 415 -161 93 callsubr
        </CharString>
        <CharString name="breve">
          -206 454 15 callgsubr
        </CharString>
        <CharString name="breveacutecmb">
          166 1542 -6 callgsubr
        </CharString>
        <CharString name="breveacutecmb.mini">
          117 callgsubr
          26 vhcurveto
          -118 78 callgsubr
          108 -9 rmoveto
          150 hlineto
          285 115 callsubr
        </CharString>
        <CharString name="breveacutecmb.short">
          202 1839 42 callgsubr
        </CharString>
        <CharString name="brevebelowcmb">
          -451 -137 26 callsubr
        </CharString>
        <CharString name="brevecmb">
          -83 15 callgsubr
        </CharString>
        <CharString name="brevecmb.short">
          -22 1851 -73 callgsubr
          endchar
        </CharString>
        <CharString name="brevecyrillic">
          -263 436 1538 -81 callgsubr
        </CharString>
        <CharString name="brevecyrillic.short">
          1851 vmoveto
          -71 callgsubr
        </CharString>
        <CharString name="brevegravecmb">
          322 1542 -8 callsubr
        </CharString>
        <CharString name="brevegravecmb.mini">
          117 callgsubr
          27 vhcurveto
          -119 78 callgsubr
          313 -9 rmoveto
          -177 207 129 callgsubr
          196 -207 rlineto
          endchar
        </CharString>
        <CharString name="brevegravecmb.short">
          404 1839 45 callsubr
        </CharString>
        <CharString name="brevehookabovecmb">
          111 1741 -25 callsubr
        </CharString>
        <CharString name="brevehookabovecmb.mini">
          -23 1848 rmoveto
          -166 123 -105 187 147 callgsubr
          -105 -21 -85 -66 -113 hhcurveto
          -115 -79 65 106 -3 hvcurveto
          62 168 rmoveto
          9 27 37 7 31 hhcurveto
          65 38 -26 -46 -48 -40 -38 -66 -13 hvcurveto
          41 -77 rlineto
          107 28 70 75 87 vvcurveto
          90 -76 58 -119 -32 -40 -7 -11 -25 vhcurveto
          endchar
        </CharString>
        <CharString name="brevehookabovecmb.short">
          158 2021 25 callgsubr
        </CharString>
        <CharString name="brevetildecmb">
          563 1506 -28 callgsubr
        </CharString>
        <CharString name="brevetildecmb.mini">
          -48 1797 24 callgsubr
        </CharString>
        <CharString name="brevetildecmb.short">
          434 1845 19 callsubr
        </CharString>
        <CharString name="brokenbar">
          -504 528 793 rmoveto
          152 713 rlineto
          -114 hlineto
          -151 -713 rlineto
          -120 -1097 rmoveto
          146 688 rlineto
          -113 hlineto
          -146 -688 rlineto
          endchar
        </CharString>
        <CharString name="bullet">
          -186 580 294 39 callgsubr
        </CharString>
        <CharString name="bullet.uc">
          -186 614 454 39 callgsubr
        </CharString>
        <CharString name="c">
          -80 -79 callsubr
          endchar
        </CharString>
        <CharString name="cacute">
          -75 -79 callsubr
          126 172 -74 callsubr
          endchar
        </CharString>
        <CharString name="caron">
          -223 781 1228 -76 callsubr
        </CharString>
        <CharString name="caroncmb">
          291 1228 -76 callsubr
        </CharString>
        <CharString name="caroncmb.short">
          211 1577 -80 callsubr
          endchar
        </CharString>
        <CharString name="carondotaccentcmb">
          127 1228 61 callgsubr
        </CharString>
        <CharString name="carondotaccentcmb.mini">
          211 1577 30 callgsubr
          382 39 rmoveto
          57 47 46 57 57 -47 88 callsubr
        </CharString>
        <CharString name="carondotaccentcmb.short">
          211 1577 30 callgsubr
          385 49 rmoveto
          57 46 46 57 57 -46 88 callsubr
        </CharString>
        <CharString name="ccaron">
          -75 -79 callsubr
          137 133 -76 callsubr
        </CharString>
        <CharString name="ccedilla">
          -73 1142 760 rmoveto
          -1 15 -2 15 -3 15 rrcurveto
          170 -33 -163 120 -207 hhcurveto
          -327 -241 -285 -382 -235 131 -165 205 -38 hvcurveto
          -85 -131 -11 -72 52 -1 rlineto
          87 -3 49 -32 -52 vvcurveto
          -53 -48 -34 -72 -48 -67 14 18 -36 vhcurveto
          -18 -87 rlineto
          -23 46 69 -14 56 hhcurveto
          136 97 77 109 89 -63 54 -117 12 hvcurveto
          77 121 224 4 178 122 46 182 rlinecurve
          -137 hlineto
          -117 -44 -119 -71 -148 hhcurveto
          -186 -116 131 213 300 181 231 238 154 118 -90 -127 14 hvcurveto
          endchar
        </CharString>
        <CharString name="ccedilla.mini">
          -75 1142 760 rmoveto
          -1 15 -2 15 -3 15 rrcurveto
          170 -33 -163 120 -207 hhcurveto
          -327 -241 -285 -382 -233 129 -164 201 -40 hvcurveto
          -80 -129 -10 -56 61 -2 rlineto
          87 -3 42 -28 -47 vvcurveto
          -47 -46 -26 -72 -39 -46 9 14 -32 vhcurveto
          -17 -80 rlineto
          -16 34 66 -12 38 hhcurveto
          135 90 62 99 91 -61 52 -119 7 hvcurveto
          67 103 rlineto
          0 0 0 0 229 184 123 185 47 vhcurveto
          -137 hlineto
          -117 -44 -119 -71 -148 hhcurveto
          -186 -116 131 213 300 181 231 238 154 118 -90 -127 14 hvcurveto
          endchar
        </CharString>
        <CharString name="ccedillaacute">
          -73 1198 1594 rmoveto
          -169 hlineto
          -320 -327 rlineto
          150 hlineto
          283 -507 rmoveto
          -1 15 -2 15 -3 15 rrcurveto
          170 -33 -163 120 -207 hhcurveto
          -327 -241 -285 -382 -235 131 -165 205 -38 hvcurveto
          -85 -131 -11 -72 52 -1 rlineto
          87 -3 49 -32 -52 vvcurveto
          -53 -48 -34 -72 -48 -67 14 18 -36 vhcurveto
          -18 -87 rlineto
          -23 46 69 -14 56 hhcurveto
          136 97 77 109 89 -63 54 -117 12 hvcurveto
          77 121 224 4 178 122 46 182 rlinecurve
          -137 hlineto
          -117 -44 -119 -71 -148 hhcurveto
          -186 -116 131 213 300 181 231 238 154 118 -90 -127 14 hvcurveto
          endchar
        </CharString>
        <CharString name="ccedillaacute.mini">
          -75 1198 1594 rmoveto
          -169 hlineto
          -320 -327 rlineto
          150 hlineto
          283 -507 rmoveto
          -1 15 -2 15 -3 15 rrcurveto
          170 -33 -163 120 -207 hhcurveto
          -327 -241 -285 -382 -233 129 -164 201 -40 hvcurveto
          -80 -129 -10 -56 61 -2 rlineto
          87 -3 42 -28 -47 vvcurveto
          -47 -46 -26 -72 -39 -46 9 14 -32 vhcurveto
          -17 -80 rlineto
          -16 34 66 -12 38 hhcurveto
          135 90 62 99 91 -61 52 -119 7 hvcurveto
          67 103 rlineto
          0 0 0 0 229 184 123 185 47 vhcurveto
          -137 hlineto
          -117 -44 -119 -71 -148 hhcurveto
          -186 -116 131 213 300 181 231 238 154 118 -90 -127 14 hvcurveto
          endchar
        </CharString>
        <CharString name="ccircumflex">
          -75 -79 callsubr
          188 465 -47 callgsubr
        </CharString>
        <CharString name="cdotaccent">
          -75 -79 callsubr
          85 185 -65 callsubr
        </CharString>
        <CharString name="cedi">
          98 296 587 rmoveto
          417 255 342 301 vhcurveto
          7 4 0 7 hhcurveto
          -262 -1241 rlineto
          -203 47 -109 176 259 vvcurveto
          996 -212 rmoveto
          -143 hlineto
          -163 -56 -155 -119 -201 hhcurveto
          -10 -10 1 1 -9 hvcurveto
          264 1243 177 -30 122 -125 9 -176 rlinecurve
          -2 0 -12 -3 vvcurveto
          138 hlineto
          3 0 14 3 vvcurveto
          223 -177 188 -242 42 vhcurveto
          29 136 rlineto
          -104 hlineto
          -27 -126 rlineto
          -8 -6 0 -8 hhcurveto
          -397 -324 -381 -518 -317 162 -227 264 -52 hvcurveto
          -29 -131 rlineto
          104 hlineto
          26 120 rlineto
          -1 8 10 0 11 hhcurveto
          287 226 165 244 69 hvcurveto
          endchar
        </CharString>
        <CharString name="cedilla">
          -223 262 -213 -90 callsubr
        </CharString>
        <CharString name="cedillacmb">
          -212 -213 -90 callsubr
        </CharString>
        <CharString name="cedillacmb.mini">
          -211 -194 -88 callsubr
          endchar
        </CharString>
        <CharString name="cent">
          98 1176 471 rmoveto
          -136 hlineto
          -117 -45 -119 -71 -148 hhcurveto
          -185 -117 134 213 299 181 232 238 154 118 -90 -127 15 hvcurveto
          -16 callgsubr
          -1 15 -2 15 -2 15 -28 140 -115 105 -155 32 39 180 rcurveline
          -131 hlineto
          -36 -167 rlineto
          -315 -12 -230 -282 -373 vvcurveto
          -231 125 -164 198 -42 vhcurveto
          -44 -204 rlineto
          131 hlineto
          70 15 28 122 1 hhcurveto
          216 9 172 120 45 179 rrcurveto
          endchar
        </CharString>
        <CharString name="checyrillic">
          -5 callsubr
          endchar
        </CharString>
        <CharString name="chigreek">
          -107 913 -367 rmoveto
          25 28 3 7 25 hvcurveto
          128 callgsubr
          -21 -15 -2 -17 hhcurveto
          -79 -29 25 87 -26 hvcurveto
          -141 483 548 733 rlineto
          -143 hlineto
          -434 -595 rlineto
          -12 hlineto
          -133 448 rlineto
          116 -35 -55 41 -106 hhcurveto
          -31 -23 -3 -7 -29 hvcurveto
          -24 -112 rlineto
          4 17 20 2 15 hhcurveto
          78 33 -26 -87 25 hvcurveto
          146 -494 -550 -721 rlineto
          144 hlineto
          435 583 rlineto
          12 hlineto
          130 -441 rlineto
          -114 33 52 -38 113 hhcurveto
          endchar
        </CharString>
        <CharString name="circumflex">
          -223 851 1560 -47 callgsubr
        </CharString>
        <CharString name="circumflexacutecmb">
          345 1534 -33 callsubr
          -84 311 rmoveto
          -16 callgsubr
          292 296 163 callsubr
          endchar
        </CharString>
        <CharString name="circumflexacutecmb.mini">
          392 1801 rmoveto
          -151 hlineto
          -87 callgsubr
          -186 248 108 callgsubr
          221 129 callgsubr
          endchar
        </CharString>
        <CharString name="circumflexacutecmb.short">
          42 callsubr
          51 24 108 callgsubr
          231 rlineto
          -167 hlineto
          endchar
        </CharString>
        <CharString name="circumflexbelowcmb">
          -25 -143 -57 callgsubr
          endchar
        </CharString>
        <CharString name="circumflexcmb">
          342 1560 -47 callgsubr
        </CharString>
        <CharString name="circumflexcmb.short">
          409 92 callgsubr
          endchar
        </CharString>
        <CharString name="circumflexgravecmb">
          680 1539 -23 callsubr
        </CharString>
</ttFont>
